<?xml version="1.0" encoding="UTF-8"?>
<!DOCTYPE svg PUBLIC "-//W3C//DTD SVG 1.1//EN" "http://www.w3.org/Graphics/SVG/1.1/DTD/svg11.dtd">
<!-- Creator: CorelDRAW 2021 (64-Bit) -->
<svg xmlns="http://www.w3.org/2000/svg" xml:space="preserve" width="138px" height="25px" version="1.1" style="shape-rendering:geometricPrecision; text-rendering:geometricPrecision; image-rendering:optimizeQuality; fill-rule:evenodd; clip-rule:evenodd"
viewBox="0 0 138 25.09"
 xmlns:xlink="http://www.w3.org/1999/xlink"
 xmlns:xodm="http://www.corel.com/coreldraw/odm/2003">
 <defs>
  <style type="text/css">
   <![CDATA[
    .str1 {stroke:#3BAA33;stroke-width:0.19;stroke-miterlimit:2.61313}
    .str0 {stroke:#3BAA33;stroke-width:2.55;stroke-linecap:round;stroke-linejoin:round;stroke-miterlimit:2.61313}
    .fil0 {fill:none}
    .fil1 {fill:none;fill-rule:nonzero}
    .fil2 {fill:#3BAA33;fill-rule:nonzero}
   ]]>
  </style>
 </defs>
 <g id="Layer_x0020_1">
  <metadata id="CorelCorpID_0Corel-Layer"/>
  <g id="_3006072263728">
   <g>
    <g>
     <path class="fil0 str0" d="M15.41 16.46c0,-2.56 -2.07,-4.63 -4.63,-4.63 -2.56,0 -4.63,2.07 -4.63,4.63 0,2.56 2.07,4.63 4.63,4.63"/>
     <line class="fil0 str0" x1="15.41" y1="21.09" x2="15.41" y2= "16.46" />
    </g>
    <g>
     <path class="fil0 str0" d="M39.34 21.09c-2.56,0 -4.63,-2.07 -4.63,-4.63 0,-0.22 0.01,-0.43 0.04,-0.64m4.65 5.27c-0.02,0 -0.04,0 -0.06,0m0 -9.26c2.52,0 4.57,2.01 4.63,4.52l-4.63 0.11"/>
     <polyline class="fil0 str0" points="39.34,11.83 34.75,11.83 34.75,17.1 "/>
    </g>
    <g>
     <path class="fil1 str0" d="M56.48 16.64c0,-2.55 -2.07,-4.63 -4.63,-4.63 -2.56,0 -4.63,2.08 -4.63,4.63 0,2.56 2.07,4.63 4.63,4.63"/>
     <line class="fil0 str0" x1="56.48" y1="21.09" x2="56.48" y2= "16.64" />
     <line class="fil0 str0" x1="56.48" y1="2.75" x2="56.48" y2= "16.64" />
    </g>
    <g>
     <path class="fil0 str0" d="M93.96 16.46c0,-2.56 -2.07,-4.63 -4.63,-4.63"/>
     <polyline class="fil0 str0" points="89.33,11.83 84.7,11.83 84.7,21.09 "/>
     <line class="fil0 str0" x1="93.96" y1="16.46" x2="93.96" y2= "21.09" />
    </g>
    <line class="fil0 str0" x1="18.75" y1="2.75" x2="18.75" y2= "21.09" />
    <g>
     <path class="fil0 str0" d="M31.34 16.46c0,-2.56 -2.07,-4.63 -4.63,-4.63 -2.56,0 -4.63,2.07 -4.63,4.63 0,2.56 2.07,4.63 4.63,4.63"/>
     <line class="fil0 str0" x1="31.34" y1="21.09" x2="31.34" y2= "16.46" />
    </g>
    <g>
     <path class="fil0 str0" d="M64.44 21.09c-2.56,0 -4.63,-2.07 -4.63,-4.63 0,-0.22 0.01,-0.43 0.04,-0.64m4.65 5.27c-0.02,0 -0.04,0 -0.06,0m0 -9.26c2.52,0 4.57,2.01 4.63,4.52l-4.63 0.11"/>
     <polyline class="fil0 str0" points="64.44,11.83 59.85,11.83 59.85,17.1 "/>
    </g>
    <g>
     <path class="fil0 str0" d="M76.87 21.09c-2.56,0 -4.64,-2.07 -4.64,-4.63 0,-0.22 0.02,-0.43 0.05,-0.64m4.65 5.27c-0.02,0 -0.04,0 -0.06,0m0 -9.26c2.52,0 4.57,2.01 4.63,4.52l-4.63 0.11"/>
     <polyline class="fil0 str0" points="76.87,11.83 72.28,11.83 72.28,17.1 "/>
    </g>
   </g>
   <path class="fil2" d="M98.96 21.23c-0.32,0 -0.6,-0.1 -0.83,-0.31 -0.24,-0.21 -0.36,-0.5 -0.36,-0.87 0,-0.32 0.12,-0.59 0.34,-0.82 0.22,-0.23 0.5,-0.34 0.82,-0.34 0.33,0 0.61,0.11 0.84,0.34 0.23,0.22 0.35,0.5 0.35,0.82 0,0.37 -0.12,0.66 -0.35,0.87 -0.23,0.21 -0.5,0.31 -0.81,0.31z"/>
   <path id="_1" class="fil2" d="M110.16 18.61c0,0.26 -0.08,0.54 -0.24,0.84 -0.16,0.3 -0.4,0.59 -0.72,0.86 -0.33,0.27 -0.74,0.49 -1.23,0.66 -0.49,0.16 -1.05,0.25 -1.67,0.25 -1.31,0 -2.33,-0.39 -3.07,-1.15 -0.74,-0.77 -1.11,-1.79 -1.11,-3.08 0,-0.87 0.17,-1.64 0.51,-2.31 0.34,-0.67 0.83,-1.19 1.46,-1.55 0.64,-0.37 1.41,-0.55 2.29,-0.55 0.55,0 1.06,0.08 1.52,0.24 0.45,0.16 0.84,0.37 1.16,0.63 0.32,0.25 0.57,0.52 0.73,0.81 0.17,0.29 0.26,0.56 0.26,0.81 0,0.25 -0.1,0.47 -0.29,0.64 -0.19,0.18 -0.42,0.27 -0.69,0.27 -0.17,0 -0.32,-0.05 -0.43,-0.14 -0.12,-0.09 -0.25,-0.23 -0.4,-0.44 -0.26,-0.39 -0.53,-0.69 -0.81,-0.88 -0.28,-0.2 -0.64,-0.3 -1.08,-0.3 -0.62,0 -1.13,0.25 -1.51,0.74 -0.39,0.49 -0.58,1.15 -0.58,2 0,0.4 0.05,0.77 0.15,1.1 0.1,0.34 0.24,0.63 0.43,0.86 0.18,0.24 0.41,0.41 0.67,0.54 0.27,0.12 0.56,0.18 0.87,0.18 0.43,0 0.79,-0.1 1.1,-0.3 0.3,-0.19 0.57,-0.5 0.8,-0.9 0.13,-0.24 0.27,-0.42 0.42,-0.56 0.15,-0.13 0.34,-0.2 0.55,-0.2 0.26,0 0.48,0.1 0.65,0.3 0.17,0.19 0.26,0.4 0.26,0.63z"/>
   <path id="_2" class="fil2" d="M119.96 16.92c0,0.63 -0.1,1.21 -0.3,1.75 -0.2,0.53 -0.48,0.99 -0.86,1.37 -0.37,0.39 -0.82,0.68 -1.33,0.88 -0.52,0.21 -1.11,0.31 -1.75,0.31 -0.65,0 -1.23,-0.1 -1.74,-0.31 -0.51,-0.21 -0.96,-0.5 -1.34,-0.89 -0.37,-0.39 -0.66,-0.84 -0.85,-1.37 -0.2,-0.53 -0.29,-1.11 -0.29,-1.75 0,-0.64 0.09,-1.23 0.29,-1.76 0.2,-0.54 0.48,-0.99 0.85,-1.37 0.37,-0.38 0.82,-0.67 1.34,-0.88 0.52,-0.2 1.1,-0.3 1.74,-0.3 0.64,0 1.22,0.1 1.75,0.31 0.52,0.2 0.97,0.5 1.34,0.89 0.38,0.38 0.66,0.84 0.85,1.37 0.2,0.53 0.3,1.11 0.3,1.75zm-2.14 0c0,-0.87 -0.19,-1.54 -0.57,-2.02 -0.38,-0.48 -0.89,-0.73 -1.53,-0.73 -0.42,0 -0.79,0.11 -1.1,0.33 -0.32,0.21 -0.56,0.53 -0.73,0.95 -0.17,0.42 -0.26,0.91 -0.26,1.47 0,0.55 0.09,1.04 0.25,1.45 0.17,0.42 0.41,0.73 0.73,0.96 0.31,0.22 0.68,0.32 1.11,0.32 0.64,0 1.15,-0.24 1.53,-0.72 0.38,-0.49 0.57,-1.16 0.57,-2.01z"/>
   <path id="_3" class="fil2" d="M128.69 17.07l0 2.82c0,0.45 -0.1,0.78 -0.31,1.01 -0.2,0.22 -0.47,0.33 -0.79,0.33 -0.33,0 -0.59,-0.11 -0.79,-0.33 -0.19,-0.23 -0.3,-0.56 -0.3,-1.01l0 -3.38c0,-0.54 -0.01,-0.95 -0.05,-1.24 -0.04,-0.3 -0.13,-0.54 -0.3,-0.73 -0.16,-0.19 -0.41,-0.29 -0.76,-0.29 -0.7,0 -1.15,0.24 -1.37,0.72 -0.22,0.48 -0.34,1.16 -0.34,2.05l0 2.87c0,0.44 -0.1,0.78 -0.3,1 -0.2,0.23 -0.46,0.34 -0.78,0.34 -0.32,0 -0.59,-0.11 -0.79,-0.34 -0.21,-0.22 -0.31,-0.56 -0.31,-1l0 -6.07c0,-0.4 0.09,-0.71 0.28,-0.91 0.18,-0.21 0.42,-0.31 0.72,-0.31 0.29,0 0.54,0.09 0.73,0.29 0.19,0.19 0.29,0.46 0.29,0.8l0 0.2c0.37,-0.44 0.76,-0.76 1.18,-0.97 0.42,-0.2 0.89,-0.31 1.4,-0.31 0.54,0 1,0.11 1.38,0.32 0.39,0.21 0.7,0.53 0.95,0.96 0.36,-0.43 0.74,-0.75 1.15,-0.96 0.41,-0.21 0.86,-0.32 1.36,-0.32 0.59,0 1.08,0.12 1.5,0.34 0.42,0.23 0.74,0.56 0.95,0.98 0.18,0.39 0.27,0.99 0.27,1.82l0 4.14c0,0.45 -0.1,0.78 -0.3,1.01 -0.21,0.22 -0.47,0.33 -0.8,0.33 -0.33,0 -0.59,-0.11 -0.79,-0.34 -0.21,-0.22 -0.31,-0.56 -0.31,-1l0 -3.57c0,-0.45 -0.02,-0.82 -0.06,-1.09 -0.04,-0.28 -0.14,-0.51 -0.32,-0.7 -0.17,-0.18 -0.43,-0.28 -0.77,-0.28 -0.28,0 -0.55,0.09 -0.8,0.25 -0.25,0.17 -0.45,0.39 -0.59,0.67 -0.16,0.36 -0.23,0.99 -0.23,1.9z"/>
   <path id="_4" class="fil1 str1" d="M98.96 21.23c-0.32,0 -0.6,-0.1 -0.83,-0.31 -0.24,-0.21 -0.36,-0.5 -0.36,-0.87 0,-0.32 0.12,-0.59 0.34,-0.82 0.22,-0.23 0.5,-0.34 0.82,-0.34 0.33,0 0.61,0.11 0.84,0.34 0.23,0.22 0.35,0.5 0.35,0.82 0,0.37 -0.12,0.66 -0.35,0.87 -0.23,0.21 -0.5,0.31 -0.81,0.31z"/>
   <path id="_5" class="fil1 str1" d="M110.16 18.61c0,0.26 -0.08,0.54 -0.24,0.84 -0.16,0.3 -0.4,0.59 -0.72,0.86 -0.33,0.27 -0.74,0.49 -1.23,0.66 -0.49,0.16 -1.05,0.25 -1.67,0.25 -1.31,0 -2.33,-0.39 -3.07,-1.15 -0.74,-0.77 -1.11,-1.79 -1.11,-3.08 0,-0.87 0.17,-1.64 0.51,-2.31 0.34,-0.67 0.83,-1.19 1.46,-1.55 0.64,-0.37 1.41,-0.55 2.29,-0.55 0.55,0 1.06,0.08 1.52,0.24 0.45,0.16 0.84,0.37 1.16,0.63 0.32,0.25 0.57,0.52 0.73,0.81 0.17,0.29 0.26,0.56 0.26,0.81 0,0.25 -0.1,0.47 -0.29,0.64 -0.19,0.18 -0.42,0.27 -0.69,0.27 -0.17,0 -0.32,-0.05 -0.43,-0.14 -0.12,-0.09 -0.25,-0.23 -0.4,-0.44 -0.26,-0.39 -0.53,-0.69 -0.81,-0.88 -0.28,-0.2 -0.64,-0.3 -1.08,-0.3 -0.62,0 -1.13,0.25 -1.51,0.74 -0.39,0.49 -0.58,1.15 -0.58,2 0,0.4 0.05,0.77 0.15,1.1 0.1,0.34 0.24,0.63 0.43,0.86 0.18,0.24 0.41,0.41 0.67,0.54 0.27,0.12 0.56,0.18 0.87,0.18 0.43,0 0.79,-0.1 1.1,-0.3 0.3,-0.19 0.57,-0.5 0.8,-0.9 0.13,-0.24 0.27,-0.42 0.42,-0.56 0.15,-0.13 0.34,-0.2 0.55,-0.2 0.26,0 0.48,0.1 0.65,0.3 0.17,0.19 0.26,0.4 0.26,0.63z"/>
   <path id="_6" class="fil1 str1" d="M119.96 16.92c0,0.63 -0.1,1.21 -0.3,1.75 -0.2,0.53 -0.48,0.99 -0.86,1.37 -0.37,0.39 -0.82,0.68 -1.33,0.88 -0.52,0.21 -1.11,0.31 -1.75,0.31 -0.65,0 -1.23,-0.1 -1.74,-0.31 -0.51,-0.21 -0.96,-0.5 -1.34,-0.89 -0.37,-0.39 -0.66,-0.84 -0.85,-1.37 -0.2,-0.53 -0.29,-1.11 -0.29,-1.75 0,-0.64 0.09,-1.23 0.29,-1.76 0.2,-0.54 0.48,-0.99 0.85,-1.37 0.37,-0.38 0.82,-0.67 1.34,-0.88 0.52,-0.2 1.1,-0.3 1.74,-0.3 0.64,0 1.22,0.1 1.75,0.31 0.52,0.2 0.97,0.5 1.34,0.89 0.38,0.38 0.66,0.84 0.85,1.37 0.2,0.53 0.3,1.11 0.3,1.75zm-2.14 0c0,-0.87 -0.19,-1.54 -0.57,-2.02 -0.38,-0.48 -0.89,-0.73 -1.53,-0.73 -0.42,0 -0.79,0.11 -1.1,0.33 -0.32,0.21 -0.56,0.53 -0.73,0.95 -0.17,0.42 -0.26,0.91 -0.26,1.47 0,0.55 0.09,1.04 0.25,1.45 0.17,0.42 0.41,0.73 0.73,0.96 0.31,0.22 0.68,0.32 1.11,0.32 0.64,0 1.15,-0.24 1.53,-0.72 0.38,-0.49 0.57,-1.16 0.57,-2.01z"/>
   <path id="_7" class="fil1 str1" d="M128.69 17.07l0 2.82c0,0.45 -0.1,0.78 -0.31,1.01 -0.2,0.22 -0.47,0.33 -0.79,0.33 -0.33,0 -0.59,-0.11 -0.79,-0.33 -0.19,-0.23 -0.3,-0.56 -0.3,-1.01l0 -3.38c0,-0.54 -0.01,-0.95 -0.05,-1.24 -0.04,-0.3 -0.13,-0.54 -0.3,-0.73 -0.16,-0.19 -0.41,-0.29 -0.76,-0.29 -0.7,0 -1.15,0.24 -1.37,0.72 -0.22,0.48 -0.34,1.16 -0.34,2.05l0 2.87c0,0.44 -0.1,0.78 -0.3,1 -0.2,0.23 -0.46,0.34 -0.78,0.34 -0.32,0 -0.59,-0.11 -0.79,-0.34 -0.21,-0.22 -0.31,-0.56 -0.31,-1l0 -6.07c0,-0.4 0.09,-0.71 0.28,-0.91 0.18,-0.21 0.42,-0.31 0.72,-0.31 0.29,0 0.54,0.09 0.73,0.29 0.19,0.19 0.29,0.46 0.29,0.8l0 0.2c0.37,-0.44 0.76,-0.76 1.18,-0.97 0.42,-0.2 0.89,-0.31 1.4,-0.31 0.54,0 1,0.11 1.38,0.32 0.39,0.21 0.7,0.53 0.95,0.96 0.36,-0.43 0.74,-0.75 1.15,-0.96 0.41,-0.21 0.86,-0.32 1.36,-0.32 0.59,0 1.08,0.12 1.5,0.34 0.42,0.23 0.74,0.56 0.95,0.98 0.18,0.39 0.27,0.99 0.27,1.82l0 4.14c0,0.45 -0.1,0.78 -0.3,1.01 -0.21,0.22 -0.47,0.33 -0.8,0.33 -0.33,0 -0.59,-0.11 -0.79,-0.34 -0.21,-0.22 -0.31,-0.56 -0.31,-1l0 -3.57c0,-0.45 -0.02,-0.82 -0.06,-1.09 -0.04,-0.28 -0.14,-0.51 -0.32,-0.7 -0.17,-0.18 -0.43,-0.28 -0.77,-0.28 -0.28,0 -0.55,0.09 -0.8,0.25 -0.25,0.17 -0.45,0.39 -0.59,0.67 -0.16,0.36 -0.23,0.99 -0.23,1.9z"/>
  </g>
 </g>
</svg>
