<svg width="24" height="24" viewBox="0 0 24 24" fill="none" xmlns="http://www.w3.org/2000/svg">
<path fill-rule="evenodd" clip-rule="evenodd" d="M1.99988 12.0001C1.99988 6.48011 6.46988 2.00011 11.9999 2.00011C17.5199 2.00011 21.9999 6.48011 21.9999 12.0001C21.9999 17.5301 17.5199 22.0001 11.9999 22.0001C6.46988 22.0001 1.99988 17.5301 1.99988 12.0001ZM14.2299 13.8301L15.8499 8.71011C15.9599 8.36011 15.6399 8.03011 15.2899 8.14011L10.1699 9.74011C9.95988 9.81011 9.78988 9.97011 9.72988 10.1801L8.12988 15.3101C8.01988 15.6501 8.34988 15.9801 8.68988 15.8701L13.7899 14.2701C13.9999 14.2101 14.1699 14.0401 14.2299 13.8301Z" fill="#130F26"/>
</svg>
