<svg width="24" height="24" viewBox="0 0 24 24" fill="none" xmlns="http://www.w3.org/2000/svg">
<path fill-rule="evenodd" clip-rule="evenodd" d="M19.2014 4.32867C19.9462 4.57382 20.4495 5.26122 20.4495 6.02608L20.4998 12.6637C20.5098 14.674 19.7751 16.6253 18.4264 18.1561C17.8125 18.8621 17.0173 19.4603 16.0109 19.9996L12.4378 21.9117C12.3271 21.9706 12.2064 22 12.0856 22C11.9648 22 11.834 21.9706 11.7232 21.9117L8.12003 20.0486C7.10348 19.5191 6.30836 18.9307 5.68434 18.2345C4.31552 16.7244 3.55059 14.773 3.54053 12.7628L3.50027 6.12316C3.49021 5.3583 3.99345 4.67286 4.72818 4.41693L11.3408 2.1037C11.7333 1.96543 12.1661 1.96543 12.5687 2.1037L19.2014 4.32867ZM14.4206 14.0866C14.7125 13.8022 14.7125 13.3315 14.4206 13.0472L13.0619 11.7224L14.4206 10.3995C14.7125 10.1152 14.7125 9.65429 14.4206 9.35913C14.1287 9.07476 13.6456 9.07476 13.3537 9.35913L11.995 10.6839L10.6362 9.35913C10.3444 9.07476 9.87131 9.07476 9.56937 9.35913C9.27749 9.65429 9.27749 10.1152 9.56937 10.3995L10.9281 11.7224L9.56937 13.0472C9.27749 13.3315 9.27749 13.8022 9.56937 14.0866C9.72034 14.2337 9.91157 14.3013 10.1028 14.3013C10.3041 14.3013 10.4953 14.2337 10.6362 14.0866L11.995 12.7628L13.3537 14.0866C13.5047 14.2337 13.6959 14.3013 13.8872 14.3013C14.0784 14.3013 14.2797 14.2337 14.4206 14.0866Z" fill="#130F26"/>
</svg>
