<svg width="27" height="51" viewBox="0 0 27 51" fill="none" xmlns="http://www.w3.org/2000/svg">
<path d="M2.07935 13.1632C2.32376 15.0779 2.65315 16.9656 2.96234 18.8698C3.0224 19.2436 3.08413 19.6177 3.14447 19.9916C3.28896 20.9298 3.40771 21.8578 3.50542 22.8018C3.97681 27.5267 3.77807 32.0917 2.61994 36.7064" stroke="#3BAA33" stroke-width="2.34367" stroke-miterlimit="2.61313" stroke-linecap="round"/>
<path d="M6.20529 8.96167C3.53361 9.02619 2.00402 9.94752 2.06215 12.8153C2.06519 12.9316 2.07183 13.0471 2.07931 13.1634" stroke="#3BAA33" stroke-width="2.34367" stroke-miterlimit="2.61313" stroke-linecap="round"/>
<path d="M24.6551 8.18652C17.3833 9.70268 15.4081 9.76166 8.03802 9.06354C7.42324 9.00926 6.81954 8.99652 6.20532 8.96135" stroke="#3BAA33" stroke-width="2.34367" stroke-miterlimit="2.61313" stroke-linecap="round"/>
<path d="M24.6039 19.7323C23.428 28.8655 24.0835 33.8479 25.2112 37.4208" stroke="#3BAA33" stroke-width="2.34367" stroke-miterlimit="2.61313" stroke-linecap="round"/>
<path d="M13.8843 17.7698C16.1731 17.7407 17.6723 17.5715 19.9216 17.1852M13.9255 30.5583C13.9349 26.1215 13.8898 22.2061 13.8843 17.7698L13.9255 30.5583Z" stroke="#3BAA33" stroke-width="1.40614" stroke-miterlimit="2.61313" stroke-linecap="round"/>
<path fill-rule="evenodd" clip-rule="evenodd" d="M18.1877 18.881C17.5463 21.1102 14.8589 18.287 17.2327 18.028C17.7952 17.9668 18.2292 18.2814 18.1877 18.881Z" fill="#3BAA33" stroke="#3BAA33" stroke-width="1.40614" stroke-miterlimit="2.61313" stroke-linecap="round"/>
<path fill-rule="evenodd" clip-rule="evenodd" d="M7.16229 28.2811C7.88197 28.2723 8.57619 28.2401 9.29836 28.2623C9.48686 28.2678 9.64408 28.2723 9.83341 28.2703C9.9898 28.2684 10.2741 28.2559 10.2589 28.4797C10.2506 28.6024 10.0394 28.6472 9.94219 28.6791C9.73155 28.7483 9.59564 28.7829 9.37808 28.8222C9.11567 28.8718 8.84828 28.9468 8.58311 29.0033C8.32541 29.0582 8.08736 29.1365 7.82246 29.1903C4.32316 30.6721 4.55373 33.4626 3.74686 36.5979C3.41664 37.9507 2.87217 39.4835 3.53677 40.8296C3.87972 41.5244 4.94125 42.1461 5.69941 42.3081C7.05988 42.497 7.96169 42.4529 9.30555 42.4344C9.49184 42.4319 9.6773 42.4333 9.86358 42.4352C10.1628 42.4394 10.436 42.4521 10.4155 42.8287C10.3851 43.3864 9.1583 43.5717 8.74199 43.6437C7.88391 43.7924 6.92895 43.8722 6.06146 43.8893C5.7711 43.8932 5.48599 43.8902 5.19591 43.8788C4.5994 43.8517 3.95031 43.7991 3.37235 43.6434C2.51648 43.395 2.10876 43.1447 1.50533 42.5003C1.05581 41.9894 0.938722 41.4433 0.861495 40.7842C0.799215 39.4813 1.00183 38.18 1.36749 36.93C1.77438 35.5888 2.02987 34.6293 2.20785 33.2283C2.3147 32.3859 2.45725 31.6039 2.53392 30.7499C2.56631 30.3882 2.60257 30.0277 2.63135 29.6655C2.65322 29.3766 2.65377 29.0875 2.66623 28.7979C2.69945 28.1548 3.02303 28.3141 3.58521 28.2961C4.36827 28.2709 5.20836 28.2986 6.00305 28.2905C6.38947 28.2867 6.77588 28.2828 7.16229 28.2811V28.2811Z" fill="#3BAA33" stroke="#3BAA33" stroke-width="0.210922" stroke-miterlimit="2.61313"/>
<path fill-rule="evenodd" clip-rule="evenodd" d="M14.5792 47.0708C14.368 48.5565 14.6362 49.2391 13.5368 50.5013C13.343 50.719 13.1955 50.8441 12.9436 50.9881C12.8633 50.9123 13.2367 50.3343 13.3053 50.1756C13.919 48.6822 13.6862 47.4579 12.8738 46.1018C12.029 44.921 11.2479 43.5018 11.5388 41.9926C11.729 41.0059 12.4074 40.1701 13.4332 40.0411L13.583 40.0223C15.8605 39.9744 16.563 42.1385 15.8469 44.0224C15.3847 45.2387 14.8859 45.5912 14.5828 47.0528L14.5792 47.0708V47.0708Z" fill="#3BAA33"/>
<path fill-rule="evenodd" clip-rule="evenodd" d="M13.5192 7.29309C12.8142 7.34072 11.7892 7.47475 11.2996 8.03469C11.0826 8.28281 10.9284 8.48884 10.9021 8.82918C10.8816 9.08921 11.0474 9.20331 11.2755 9.26949L11.3035 9.27697C11.4408 9.31186 11.477 9.31574 11.6002 9.393C11.8524 9.55832 12.1449 9.65885 12.4461 9.67657C12.8541 9.69651 13.2748 9.67297 13.6859 9.67546C14.3034 9.70481 14.9733 9.80174 15.5532 9.52952C15.7436 9.44008 15.9197 9.43731 16.0866 9.3606C16.3166 9.24983 16.2831 9.08728 16.2377 8.87321C16.2014 8.70152 16.1477 8.52983 16.0462 8.385C15.8186 8.05989 15.6653 7.89734 15.3096 7.70571C14.9143 7.49358 14.4352 7.36592 13.9904 7.31746C13.8323 7.30112 13.6781 7.29337 13.5192 7.29309V7.29309Z" fill="#3BAA33" stroke="#3BAA33" stroke-width="0.468622" stroke-miterlimit="2.61313"/>
<path fill-rule="evenodd" clip-rule="evenodd" d="M17.8925 2.32114C18.2426 3.66477 16.7811 3.88852 17.059 4.79489C17.337 5.52735 17.5958 5.35344 17.4801 6.2911C17.3444 7.39021 17.4781 7.42898 17.8081 6.41046C18.0018 5.81258 17.8792 5.51461 17.621 4.97073C17.3956 4.50024 17.5744 4.35292 17.9066 3.99984C18.3276 3.55289 18.6656 3.21394 18.6678 2.55514C18.6659 2.47649 18.6592 2.40754 18.6504 2.33027C18.6138 2.1176 18.5059 1.90824 18.4076 1.71772C18.3102 1.54243 18.2244 1.43027 18.0865 1.28627C17.0391 0.35332 15.9784 0.20932 14.6451 0.475997C12.8899 1.02957 11.7417 2.09849 11.0968 3.82954C10.8568 4.47421 10.8562 5.04467 11.0755 5.69378C11.2958 6.29553 11.7329 6.75855 12.2076 7.17117C12.2967 7.24677 12.3731 7.30381 12.4678 7.37138C12.6712 7.50652 12.8442 7.58295 13.0715 7.66714C13.6367 7.86126 14.0142 7.43064 14.3896 7.07563C15.0445 6.40769 15.5128 5.88541 15.2443 4.91313C14.9994 3.96633 14.7049 2.59141 15.4843 1.80495C15.7725 1.51418 16.1985 1.40147 16.5979 1.41643C16.7972 1.4275 16.9384 1.49535 17.115 1.57898C17.268 1.65597 17.3871 1.7432 17.5174 1.85341C17.6758 1.99492 17.7848 2.1392 17.8925 2.32114V2.32114Z" fill="#3BAA33"/>
<path fill-rule="evenodd" clip-rule="evenodd" d="M20.436 28.2811C19.7163 28.2723 19.0221 28.2401 18.2999 28.2623C18.1114 28.2678 17.9542 28.2723 17.7648 28.2703C17.6084 28.2684 17.3242 28.2559 17.3394 28.4797C17.3477 28.6024 17.5589 28.6472 17.6561 28.6791C17.8667 28.7483 18.0026 28.7829 18.2202 28.8222C18.4826 28.8718 18.75 28.9468 19.0151 29.0033C19.2728 29.0582 19.5109 29.1365 19.7758 29.1903C23.2751 30.6721 23.0445 33.4626 23.8514 36.5979C24.1816 37.9507 24.7261 39.4835 24.0615 40.8296C23.7185 41.5244 22.657 42.1461 21.8988 42.3081C20.5384 42.497 19.6366 42.4529 18.2927 42.4344C18.1064 42.4319 17.9209 42.4333 17.7347 42.4352C17.4354 42.4394 17.1622 42.4521 17.1827 42.8287C17.2132 43.3864 18.4399 43.5717 18.8563 43.6437C19.7143 43.7924 20.6693 43.8722 21.5368 43.8893C21.8271 43.8932 22.1123 43.8902 22.4023 43.8788C22.9988 43.8517 23.6479 43.7991 24.2259 43.6434C25.0818 43.395 25.4895 43.1447 26.0929 42.5003C26.5424 41.9894 26.6595 41.4433 26.7367 40.7842C26.799 39.4813 26.5964 38.18 26.2308 36.93C25.8239 35.5888 25.5684 34.6293 25.3904 33.2283C25.2836 32.3859 25.141 31.6039 25.0643 30.7499C25.0319 30.3882 24.9957 30.0277 24.9669 29.6655C24.945 29.3766 24.9445 29.0875 24.932 28.7979C24.8988 28.1548 24.5752 28.3141 24.013 28.2961C23.23 28.2709 22.3899 28.2986 21.5952 28.2905C21.2088 28.2867 20.8224 28.2828 20.436 28.2811V28.2811Z" fill="#3BAA33" stroke="#3BAA33" stroke-width="0.210922" stroke-miterlimit="2.61313"/>
<path d="M8.86805 31.1298H18.9845C18.9859 31.173 18.9845 31.0864 18.9845 31.1298C18.9845 33.7509 16.7198 35.8757 13.9263 35.8757C11.1328 35.8757 8.86805 33.7509 8.86805 31.1298ZM8.86805 31.1298C8.86805 31.0828 8.86666 31.1766 8.86805 31.1298Z" stroke="#3BAA33" stroke-width="1.40614" stroke-miterlimit="2.61313" stroke-linecap="round" stroke-linejoin="round"/>
</svg>
