<svg width="24" height="24" viewBox="0 0 24 24" fill="none" xmlns="http://www.w3.org/2000/svg">
<path fill-rule="evenodd" clip-rule="evenodd" d="M13.1774 5.00177C13.9814 5.26937 14.5159 6.13488 14.3483 6.98302L14.1295 8.37998H15.95C16.541 8.37998 17.0932 8.61996 17.4376 9.08464C17.7841 9.55229 17.8496 10.153 17.6498 10.7224L16.4091 14.4843C16.2724 14.9838 15.9446 15.3836 15.5743 15.6536C15.1978 15.928 14.7211 16.11 14.23 16.11H12.25C12.0251 16.11 11.7619 16.0752 11.5148 16.0058C11.2992 15.9453 11.0051 15.8337 10.7711 15.62L9.19005 14.3924L10.1099 13.2076L11.7571 14.4864L11.7777 14.507C11.781 14.509 11.7861 14.5117 11.7929 14.5151C11.8206 14.5289 11.8633 14.5457 11.9202 14.5617C12.0381 14.5947 12.1649 14.61 12.25 14.61H14.23C14.3589 14.61 14.5322 14.5569 14.6907 14.4414C14.8488 14.3262 14.9359 14.1905 14.9638 14.0826L14.97 14.0586L16.2305 10.2366L16.2335 10.2283C16.2897 10.0704 16.249 10.0001 16.2324 9.97779C16.2118 9.94999 16.139 9.87998 15.95 9.87998H13.87C13.1182 9.87998 12.4927 9.23098 12.6071 8.40681L12.6089 8.39392L12.8722 6.71379L12.8764 6.69387C12.8818 6.66857 12.8803 6.61239 12.8396 6.5441C12.7991 6.47625 12.7441 6.43787 12.702 6.42443L12.6823 6.41815L12.663 6.4108C12.65 6.40584 12.5994 6.39612 12.5211 6.42303C12.4854 6.43529 12.4557 6.45157 12.435 6.46661C12.4247 6.47414 12.419 6.47956 12.4168 6.48184L12.4126 6.48828L10.2825 9.65825L9.03748 8.82168L11.1643 5.65634C11.3747 5.33441 11.7061 5.1169 12.0339 5.00433C12.3652 4.89059 12.7766 4.85517 13.1774 5.00177Z" fill="#2D8327"/>
<path fill-rule="evenodd" clip-rule="evenodd" d="M7.76878 8.49506C7.76027 8.53007 7.75 8.59625 7.75 8.70996V13.8C7.75 13.9138 7.76027 13.9799 7.76878 14.0149C7.81564 14.0273 7.90007 14.04 8.03999 14.04H8.56C8.69993 14.04 8.78437 14.0273 8.83122 14.0149C8.83973 13.9799 8.85001 13.9138 8.85001 13.8V8.70996C8.85001 8.59625 8.83973 8.53007 8.83122 8.49507C8.78437 8.48271 8.69993 8.46997 8.56 8.46997H8.03999C7.90007 8.46997 7.81564 8.48271 7.76878 8.49506ZM7.77992 8.46175C7.77999 8.46184 7.77939 8.46325 7.77791 8.4657C7.77911 8.46288 7.77985 8.46165 7.77992 8.46175ZM8.82008 8.46176C8.82015 8.46166 8.82089 8.46289 8.8221 8.46571C8.82062 8.46326 8.82001 8.46185 8.82008 8.46176ZM8.82008 14.0483C8.82001 14.0482 8.82062 14.0468 8.8221 14.0443C8.82089 14.0471 8.82015 14.0483 8.82008 14.0483ZM7.77992 14.0483C7.77985 14.0484 7.77911 14.0471 7.7779 14.0443C7.77939 14.0468 7.77999 14.0482 7.77992 14.0483ZM6.73669 7.39089C7.11744 7.03835 7.61811 6.96997 8.03999 6.96997H8.56C8.98188 6.96997 9.48255 7.03835 9.8633 7.39089C10.2583 7.75661 10.35 8.26216 10.35 8.70996V13.8C10.35 14.2478 10.2583 14.7534 9.8633 15.1191C9.48255 15.4717 8.98188 15.54 8.56 15.54H8.03999C7.61811 15.54 7.11744 15.4717 6.73669 15.1191C6.34171 14.7534 6.25 14.2478 6.25 13.8V8.70996C6.25 8.26217 6.34171 7.75661 6.73669 7.39089Z" fill="#2D8327"/>
<path fill-rule="evenodd" clip-rule="evenodd" d="M6 2.76001C4.74764 2.76001 3.75 3.76074 3.75 4.97998V15.89C3.75 17.1093 4.74764 18.11 6 18.11H6.75C7.73266 18.11 8.69436 18.4946 9.39871 19.198L9.40033 19.1996L11.1069 20.8863C11.5947 21.3677 12.3949 21.3679 12.8828 20.8866M12.8828 20.8866L14.5897 19.1996L14.5914 19.1979C15.2948 18.4954 16.2461 18.11 17.24 18.11H18C19.2507 18.11 20.25 17.1009 20.25 15.89V4.97998C20.25 3.76074 19.2524 2.76001 18 2.76001H6M2.25 4.97998C2.25 2.91923 3.93236 1.26001 6 1.26001H18C20.0676 1.26001 21.75 2.91923 21.75 4.97998V15.89C21.75 17.9391 20.0693 19.61 18 19.61H17.24C16.6347 19.61 16.0667 19.8439 15.6503 20.2603L15.6472 20.2634L13.9372 21.9535C12.8651 23.0118 11.1252 23.0121 10.0531 21.9538L8.34278 20.2634L8.33966 20.2603C7.92416 19.8448 7.34659 19.61 6.75 19.61H6C3.93236 19.61 2.25 17.9508 2.25 15.89V4.97998Z" fill="#4A3858"/>
</svg>
