<svg width="24" height="24" viewBox="0 0 24 24" fill="none" xmlns="http://www.w3.org/2000/svg">
<path d="M10.75 2.44995C11.44 1.85995 12.57 1.85995 13.27 2.44995L14.85 3.81005C15.15 4.07005 15.71 4.28002 16.11 4.28002H17.81C18.87 4.28002 19.74 5.14996 19.74 6.20996V7.91003C19.74 8.30003 19.95 8.87004 20.21 9.17004L21.57 10.75C22.16 11.44 22.16 12.57 21.57 13.27L20.21 14.85C19.95 15.15 19.74 15.71 19.74 16.11V17.8101C19.74 18.8701 18.87 19.74 17.81 19.74H16.11C15.72 19.74 15.15 19.95 14.85 20.21L13.27 21.5699C12.58 22.1599 11.45 22.1599 10.75 21.5699L9.17002 20.21C8.87002 19.95 8.31001 19.74 7.91001 19.74H6.18C5.12 19.74 4.25 18.8701 4.25 17.8101V16.1C4.25 15.71 4.04001 15.15 3.79001 14.85L2.44 13.26C1.86 12.57 1.86 11.45 2.44 10.76L3.79001 9.17004C4.04001 8.87004 4.25 8.31004 4.25 7.92004V6.20996C4.25 5.14996 5.12 4.28002 6.18 4.28002H7.91001C8.30001 4.28002 8.87002 4.07005 9.17002 3.81005L10.75 2.44995Z" stroke="#4A3858" stroke-width="1.5" stroke-linecap="round" stroke-linejoin="round"/>
<path d="M9.89014 14.82L11.3401 15.94C11.5301 16.13 11.9501 16.22 12.2301 16.22H14.0001C14.5601 16.22 15.1701 15.8 15.3101 15.24L16.4301 11.82C16.6601 11.17 16.2401 10.6 15.5401 10.6H13.6701C13.3901 10.6 13.1601 10.3701 13.2001 10.0401L13.4301 8.54008C13.5201 8.12008 13.2401 7.65005 12.8201 7.51005C12.4501 7.37005 11.9801 7.56 11.7901 7.84L9.87012 10.69" stroke="#2D8327" stroke-width="1.5" stroke-miterlimit="10"/>
<path d="M7.5 14.8199V10.24C7.5 9.57999 7.78 9.34998 8.44 9.34998H8.91C9.56 9.34998 9.85001 9.57999 9.85001 10.24V14.8199C9.85001 15.4699 9.57 15.71 8.91 15.71H8.44C7.78 15.71 7.5 15.4799 7.5 14.8199Z" stroke="#2D8327" stroke-width="1.5" stroke-linecap="round" stroke-linejoin="round"/>
</svg>
