<svg width="24" height="24" viewBox="0 0 24 24" fill="none" xmlns="http://www.w3.org/2000/svg">
<path fill-rule="evenodd" clip-rule="evenodd" d="M7.916 3.5C5.233 3.5 3.5 5.135 3.5 7.665V16.334C3.5 18.864 5.233 20.5 7.916 20.5H16.084C18.767 20.5 20.5 18.864 20.5 16.334V7.665C20.5 5.135 18.767 3.5 16.084 3.5H7.916ZM16.084 22H7.916C4.378 22 2 19.723 2 16.334V7.665C2 4.276 4.378 2 7.916 2H16.084C19.622 2 22 4.276 22 7.665V16.334C22 19.723 19.622 22 16.084 22Z" fill="black"/>
<path fill-rule="evenodd" clip-rule="evenodd" d="M16.0858 12.75H7.91382C7.49982 12.75 7.16382 12.414 7.16382 12C7.16382 11.586 7.49982 11.25 7.91382 11.25H16.0858C16.4998 11.25 16.8358 11.586 16.8358 12C16.8358 12.414 16.4998 12.75 16.0858 12.75Z" fill="black"/>
<path fill-rule="evenodd" clip-rule="evenodd" d="M12.3224 16.498C12.1304 16.498 11.9374 16.425 11.7914 16.277C11.4994 15.983 11.5004 15.509 11.7934 15.217L15.0234 12L11.7934 8.78301C11.5004 8.49101 11.4994 8.01701 11.7914 7.72301C12.0834 7.42901 12.5574 7.42901 12.8514 7.72101L16.6154 11.469C16.7574 11.609 16.8364 11.801 16.8364 12C16.8364 12.199 16.7574 12.391 16.6154 12.531L12.8514 16.279C12.7054 16.425 12.5134 16.498 12.3224 16.498Z" fill="black"/>
</svg>
