<svg width="24" height="24" viewBox="0 0 24 24" fill="none" xmlns="http://www.w3.org/2000/svg">
<path fill-rule="evenodd" clip-rule="evenodd" d="M16.084 3.5C18.767 3.5 20.5 5.135 20.5 7.665V16.334C20.5 18.864 18.767 20.5 16.084 20.5H7.916C5.233 20.5 3.5 18.864 3.5 16.334V7.665C3.5 5.135 5.233 3.5 7.916 3.5H16.084ZM7.916 22H16.084C19.622 22 22 19.723 22 16.334V7.665C22 4.276 19.622 2 16.084 2H7.916C4.378 2 2 4.276 2 7.665V16.334C2 19.723 4.378 22 7.916 22Z" fill="black"/>
<path fill-rule="evenodd" clip-rule="evenodd" d="M7.91418 12.75H16.0862C16.5002 12.75 16.8362 12.414 16.8362 12C16.8362 11.586 16.5002 11.25 16.0862 11.25H7.91418C7.50018 11.25 7.16418 11.586 7.16418 12C7.16418 12.414 7.50018 12.75 7.91418 12.75Z" fill="black"/>
<path fill-rule="evenodd" clip-rule="evenodd" d="M11.6776 16.498C11.8696 16.498 12.0626 16.425 12.2086 16.277C12.5006 15.983 12.4996 15.509 12.2066 15.217L8.97663 12L12.2066 8.78301C12.4996 8.49101 12.5006 8.01701 12.2086 7.72301C11.9166 7.42901 11.4426 7.42901 11.1486 7.72101L7.38463 11.469C7.24263 11.609 7.16363 11.801 7.16363 12C7.16363 12.199 7.24263 12.391 7.38463 12.531L11.1486 16.279C11.2946 16.425 11.4866 16.498 11.6776 16.498Z" fill="black"/>
</svg>
