<svg width="24" height="24" viewBox="0 0 24 24" fill="none" xmlns="http://www.w3.org/2000/svg">
<path fill-rule="evenodd" clip-rule="evenodd" d="M7.19406 4.83149C7.59601 4.10096 8.03328 3.61262 8.68213 3.35436C9.87114 2.88158 14.1295 2.88158 15.3176 3.35445C15.9661 3.61257 16.4035 4.10083 16.8058 4.83121L17.258 5.69836C17.2684 5.71554 17.2779 5.73065 17.2864 5.74365L17.3248 5.79616C17.5308 6.02066 17.8757 6.15629 18.1032 6.15629C20.2553 6.15629 22.0002 7.90088 22.0002 10.0523V15.8473C22.0002 18.5915 19.7745 20.8173 17.0302 20.8173H6.97024C4.22535 20.8173 2.00024 18.5918 2.00024 15.8473V10.0523C2.00024 7.90088 3.74522 6.15629 5.89724 6.15629C6.12402 6.15629 6.46932 6.02046 6.67568 5.79616C6.67981 5.79167 6.68519 5.78498 6.69169 5.77612L6.74312 5.69724L7.19406 4.83149ZM15.4919 5.55487C15.2419 5.10103 15.016 4.84888 14.7629 4.74812L14.6436 4.70845C13.6144 4.41757 10.0347 4.43079 9.2366 4.74812C8.98358 4.84882 8.75793 5.10084 8.50826 5.55459L8.1234 6.29869L8.02868 6.47012C7.9496 6.60165 7.87051 6.71267 7.78019 6.81108C7.27373 7.36158 6.52449 7.65629 5.89724 7.65629L5.73315 7.66182C4.48599 7.74614 3.50024 8.7845 3.50024 10.0523V15.8473C3.50024 17.7634 5.05383 19.3173 6.97024 19.3173H17.0302C18.946 19.3173 20.5002 17.7631 20.5002 15.8473V10.0523C20.5002 8.72938 19.4269 7.65629 18.1032 7.65629L17.9291 7.64901C17.3406 7.60058 16.6795 7.31145 16.2197 6.81041C16.1306 6.71331 16.0519 6.60307 15.9733 6.47266C15.962 6.45395 15.948 6.42932 15.9319 6.40017L15.8158 6.18243L15.4919 5.55487Z" fill="black"/>
<path d="M17.5045 8.5C18.0568 8.5 18.5045 8.94772 18.5045 9.5C18.5045 10.0128 18.1184 10.4355 17.6211 10.4933L17.5045 10.5C16.9432 10.5 16.4955 10.0523 16.4955 9.5C16.4955 8.98716 16.8815 8.56449 17.3789 8.50673L17.5045 8.5Z" fill="black"/>
<path fill-rule="evenodd" clip-rule="evenodd" d="M8.07092 13.128C8.07092 10.9578 9.82971 9.19897 11.9999 9.19897C14.1701 9.19897 15.9289 10.9578 15.9289 13.128C15.9289 15.2982 14.1701 17.057 11.9999 17.057C9.82971 17.057 8.07092 15.2982 8.07092 13.128ZM14.4289 13.128C14.4289 11.7862 13.3417 10.699 11.9999 10.699C10.6581 10.699 9.57092 11.7862 9.57092 13.128C9.57092 14.4698 10.6581 15.557 11.9999 15.557C13.3417 15.557 14.4289 14.4698 14.4289 13.128Z" fill="black"/>
</svg>
