<svg width="24" height="24" viewBox="0 0 24 24" fill="none" xmlns="http://www.w3.org/2000/svg">
<path fill-rule="evenodd" clip-rule="evenodd" d="M9.60241 15.1367C9.41041 15.1367 9.21841 15.0637 9.07241 14.9167C8.77941 14.6237 8.77941 14.1497 9.07241 13.8567L13.8644 9.06466C14.1574 8.77166 14.6314 8.77166 14.9244 9.06466C15.2174 9.35766 15.2174 9.83166 14.9244 10.1247L10.1324 14.9167C9.98641 15.0637 9.79441 15.1367 9.60241 15.1367Z" fill="black"/>
<path fill-rule="evenodd" clip-rule="evenodd" d="M14.3965 15.1396C14.2045 15.1396 14.0125 15.0666 13.8665 14.9196L9.07046 10.1226C8.77746 9.82958 8.77746 9.35558 9.07046 9.06258C9.36446 8.76958 9.83846 8.76958 10.1305 9.06258L14.9265 13.8596C15.2195 14.1526 15.2195 14.6266 14.9265 14.9196C14.7805 15.0666 14.5875 15.1396 14.3965 15.1396Z" fill="black"/>
<path fill-rule="evenodd" clip-rule="evenodd" d="M6.66836 19C6.24112 19 5.81388 18.8376 5.48899 18.5105C4.837 17.8585 4.837 16.8038 5.48899 16.1518L16.1523 5.48897C16.8043 4.83701 17.859 4.83701 18.511 5.48897C19.163 6.14094 19.163 7.19565 18.511 7.84762L7.84773 18.5105C7.52285 18.8376 7.09561 19 6.66836 19Z" fill="black"/>
<path fill-rule="evenodd" clip-rule="evenodd" d="M17.3327 19C16.9057 19 16.4788 18.8377 16.1541 18.5109L5.48868 7.84536C4.83711 7.19391 4.83711 6.14003 5.48868 5.48859C6.14248 4.83714 7.19657 4.83714 7.84592 5.48859L18.5113 16.1541C19.1629 16.8055 19.1629 17.8594 18.5113 18.5109C18.1866 18.8377 17.7574 19 17.3327 19Z" fill="black"/>
</svg>
