<svg width="24" height="24" viewBox="0 0 24 24" fill="none" xmlns="http://www.w3.org/2000/svg">
<path fill-rule="evenodd" clip-rule="evenodd" d="M12.0011 16.5411C11.5871 16.5411 11.2511 16.2051 11.2511 15.7911V3.75009C11.2511 3.33609 11.5871 3.00009 12.0011 3.00009C12.4151 3.00009 12.7511 3.33609 12.7511 3.75009V15.7911C12.7511 16.2051 12.4151 16.5411 12.0011 16.5411Z" fill="black"/>
<path fill-rule="evenodd" clip-rule="evenodd" d="M12.0011 16.5411C11.8021 16.5411 11.6101 16.4621 11.4701 16.3201L8.55407 13.3931C8.26207 13.0991 8.26307 12.6241 8.55607 12.3321C8.85007 12.0401 9.32407 12.0401 9.61607 12.3341L12.0011 14.7291L14.3861 12.3341C14.6781 12.0401 15.1521 12.0401 15.4461 12.3321C15.7391 12.6241 15.7401 13.0991 15.4481 13.3931L12.5321 16.3201C12.3921 16.4621 12.2001 16.5411 12.0011 16.5411Z" fill="black"/>
<mask id="mask0_420_1567" style="mask-type:alpha" maskUnits="userSpaceOnUse" x="2" y="7" width="20" height="15">
<path fill-rule="evenodd" clip-rule="evenodd" d="M2.00024 7.7326H22V21.4766H2.00024V7.7326Z" fill="white"/>
</mask>
<g mask="url(#mask0_420_1567)">
<path fill-rule="evenodd" clip-rule="evenodd" d="M17.5752 21.4766H6.43524C3.99024 21.4766 2.00024 19.4876 2.00024 17.0416V12.1566C2.00024 9.7166 3.98524 7.7326 6.42624 7.7326H7.36724C7.78124 7.7326 8.11724 8.0686 8.11724 8.4826C8.11724 8.89661 7.78124 9.2326 7.36724 9.2326H6.42624C4.81224 9.2326 3.50024 10.5436 3.50024 12.1566V17.0416C3.50024 18.6606 4.81624 19.9766 6.43524 19.9766H17.5752C19.1872 19.9766 20.5002 18.6636 20.5002 17.0516V12.1676C20.5002 10.5486 19.1832 9.2326 17.5662 9.2326H16.6342C16.2202 9.2326 15.8842 8.89661 15.8842 8.4826C15.8842 8.0686 16.2202 7.7326 16.6342 7.7326H17.5662C20.0112 7.7326 22.0002 9.7226 22.0002 12.1676V17.0516C22.0002 19.4916 20.0142 21.4766 17.5752 21.4766Z" fill="black"/>
</g>
</svg>
