<svg width="24" height="24" viewBox="0 0 24 24" fill="none" xmlns="http://www.w3.org/2000/svg">
<path fill-rule="evenodd" clip-rule="evenodd" d="M8.59814 16.5596C8.18414 16.5596 7.84814 16.2236 7.84814 15.8096V12.0646C7.84814 11.6506 8.18414 11.3146 8.59814 11.3146C9.01214 11.3146 9.34814 11.6506 9.34814 12.0646V15.8096C9.34814 16.2236 9.01214 16.5596 8.59814 16.5596Z" fill="black"/>
<path fill-rule="evenodd" clip-rule="evenodd" d="M10.5089 14.6865H6.68787C6.27387 14.6865 5.93787 14.3505 5.93787 13.9365C5.93787 13.5225 6.27387 13.1865 6.68787 13.1865H10.5089C10.9229 13.1865 11.2589 13.5225 11.2589 13.9365C11.2589 14.3505 10.9229 14.6865 10.5089 14.6865Z" fill="black"/>
<path fill-rule="evenodd" clip-rule="evenodd" d="M15.1163 12.9287H15.0093C14.5953 12.9287 14.2593 12.5927 14.2593 12.1787C14.2593 11.7647 14.5953 11.4287 15.0093 11.4287H15.1163C15.5303 11.4287 15.8663 11.7647 15.8663 12.1787C15.8663 12.5927 15.5303 12.9287 15.1163 12.9287Z" fill="black"/>
<path fill-rule="evenodd" clip-rule="evenodd" d="M16.9298 16.5029H16.8228C16.4088 16.5029 16.0728 16.1669 16.0728 15.7529C16.0728 15.3389 16.4088 15.0029 16.8228 15.0029H16.9298C17.3438 15.0029 17.6798 15.3389 17.6798 15.7529C17.6798 16.1669 17.3438 16.5029 16.9298 16.5029Z" fill="black"/>
<mask id="mask0_420_1607" style="mask-type:alpha" maskUnits="userSpaceOnUse" x="7" y="1" width="7" height="6">
<path fill-rule="evenodd" clip-rule="evenodd" d="M7.0719 1H13.1119V6.5879H7.0719V1Z" fill="white"/>
</mask>
<g mask="url(#mask0_420_1607)">
<path fill-rule="evenodd" clip-rule="evenodd" d="M12.3619 6.58791C11.9479 6.58791 11.6119 6.25191 11.6119 5.83791V5.16291C11.6089 4.43891 10.9949 3.84391 10.2439 3.84091H9.1899C8.0229 3.84091 7.0719 2.90291 7.0719 1.74991C7.0719 1.33591 7.4079 0.999908 7.8219 0.999908C8.2369 0.999908 8.5719 1.33591 8.5719 1.74991C8.5719 2.07591 8.8489 2.34091 9.1899 2.34091H10.2469C11.8199 2.34591 13.1049 3.60991 13.1119 5.15891V5.83791C13.1119 6.25191 12.7759 6.58791 12.3619 6.58791Z" fill="black"/>
</g>
<mask id="mask1_420_1607" style="mask-type:alpha" maskUnits="userSpaceOnUse" x="1" y="5" width="22" height="18">
<path fill-rule="evenodd" clip-rule="evenodd" d="M1.00024 5.37326H22.5V22.5H1.00024V5.37326Z" fill="white"/>
</mask>
<g mask="url(#mask1_420_1607)">
<path fill-rule="evenodd" clip-rule="evenodd" d="M11.7012 6.87301C10.2252 6.87301 8.76724 6.88601 7.33524 6.91001C4.52824 6.91001 2.50024 8.88801 2.50024 11.612V16.262C2.50024 18.985 4.52824 20.963 7.32324 20.963C10.2702 21.012 13.2412 21.012 16.1652 20.963H16.1782C18.9722 20.963 21.0002 18.985 21.0002 16.262V11.612C21.0002 8.88801 18.9722 6.91001 16.1782 6.91001C14.6742 6.88601 13.1792 6.87301 11.7012 6.87301ZM11.7542 22.5C10.2712 22.5 8.78624 22.487 7.31024 22.463C3.65924 22.463 1.00024 19.854 1.00024 16.262V11.612C1.00024 8.01901 3.65924 5.41001 7.32324 5.41001C10.1922 5.36101 13.1802 5.36101 16.1902 5.41001C19.8412 5.41001 22.5002 8.01901 22.5002 11.612V16.262C22.5002 19.852 19.8452 22.46 16.1842 22.463C14.7162 22.487 13.2362 22.5 11.7542 22.5Z" fill="black"/>
</g>
</svg>
