<svg width="24" height="24" viewBox="0 0 24 24" fill="none" xmlns="http://www.w3.org/2000/svg">
<mask id="mask0_420_1531" style="mask-type:alpha" maskUnits="userSpaceOnUse" x="2" y="2" width="20" height="20">
<path fill-rule="evenodd" clip-rule="evenodd" d="M2.00037 2.00012H21.9534V21.954H2.00037V2.00012Z" fill="white"/>
</mask>
<g mask="url(#mask0_420_1531)">
<path fill-rule="evenodd" clip-rule="evenodd" d="M7.65137 3.5C5.13037 3.5 3.50037 5.229 3.50037 7.904V16.05C3.50037 18.726 5.13037 20.454 7.65137 20.454H16.2974C18.8224 20.454 20.4534 18.726 20.4534 16.05V7.904C20.4554 6.541 20.0394 5.403 19.2514 4.614C18.5234 3.885 17.5044 3.5 16.3024 3.5H7.65137ZM16.2974 21.954H7.65137C4.27137 21.954 2.00037 19.581 2.00037 16.05V7.904C2.00037 4.373 4.27137 2 7.65137 2H16.3024C17.9104 2 19.2974 2.537 20.3124 3.554C21.3734 4.616 21.9554 6.161 21.9534 7.905V16.05C21.9534 19.581 19.6804 21.954 16.2974 21.954Z" fill="black"/>
</g>
<path fill-rule="evenodd" clip-rule="evenodd" d="M8.85635 7.68951C8.25235 7.68951 7.76135 8.18051 7.76135 8.78551C7.76135 9.38951 8.25235 9.88051 8.85735 9.88051C9.46135 9.88051 9.95335 9.38951 9.95335 8.78651C9.95235 8.18151 9.46035 7.69051 8.85635 7.68951ZM8.85735 11.3805C7.42535 11.3805 6.26135 10.2165 6.26135 8.78551C6.26135 7.35351 7.42535 6.18951 8.85735 6.18951C10.2884 6.19051 11.4524 7.35451 11.4534 8.78451V8.78551C11.4534 10.2165 10.2894 11.3805 8.85735 11.3805Z" fill="black"/>
<path fill-rule="evenodd" clip-rule="evenodd" d="M3.74893 20.1113C3.62493 20.1113 3.49893 20.0803 3.38293 20.0153C3.02093 19.8123 2.89393 19.3553 3.09593 18.9943C3.15593 18.8863 4.59093 16.3493 6.16993 15.0493C7.42193 14.0193 8.76993 14.5853 9.85593 15.0423C10.4949 15.3113 11.0989 15.5653 11.6789 15.5653C12.2109 15.5653 12.8779 14.6253 13.4679 13.7963C14.2869 12.6403 15.2169 11.3323 16.5789 11.3323C18.7489 11.3323 20.6219 13.2683 21.6289 14.3083L21.7449 14.4283C22.0329 14.7253 22.0259 15.2003 21.7289 15.4893C21.4339 15.7783 20.9589 15.7713 20.6689 15.4733L20.5509 15.3513C19.6989 14.4703 18.1129 12.8323 16.5789 12.8323C15.9909 12.8323 15.3009 13.8053 14.6899 14.6643C13.8519 15.8443 12.9849 17.0653 11.6789 17.0653C10.7959 17.0653 9.98693 16.7253 9.27393 16.4243C8.13993 15.9463 7.62593 15.7933 7.12293 16.2073C5.75893 17.3313 4.41693 19.7053 4.40393 19.7283C4.26693 19.9733 4.01193 20.1113 3.74893 20.1113Z" fill="black"/>
</svg>
