<svg width="24" height="24" viewBox="0 0 24 24" fill="none" xmlns="http://www.w3.org/2000/svg">
<mask id="mask0_420_1501" style="mask-type:alpha" maskUnits="userSpaceOnUse" x="2" y="2" width="20" height="20">
<path fill-rule="evenodd" clip-rule="evenodd" d="M2.00037 2.00018H21.96V21.95H2.00037V2.00018Z" fill="white"/>
</mask>
<g mask="url(#mask0_420_1501)">
<path fill-rule="evenodd" clip-rule="evenodd" d="M7.65037 3.5C5.12937 3.5 3.50037 5.227 3.50037 7.899V16.051C3.50037 18.724 5.12937 20.45 7.65037 20.45H16.3004C18.8274 20.45 20.4604 18.724 20.4604 16.051V7.899C20.4604 5.227 18.8274 3.5 16.3004 3.5H7.65037ZM16.3004 21.95H7.65037C4.27037 21.95 2.00037 19.579 2.00037 16.051V7.899C2.00037 4.371 4.27037 2 7.65037 2H16.3004C19.6854 2 21.9604 4.371 21.9604 7.899V16.051C21.9604 19.579 19.6854 21.95 16.3004 21.95Z" fill="black"/>
</g>
<path fill-rule="evenodd" clip-rule="evenodd" d="M5.28138 17.1804C5.09538 17.1804 4.91038 17.1124 4.76538 16.9744C4.46438 16.6904 4.45238 16.2144 4.73738 15.9154L6.26538 14.3024C7.07438 13.4434 8.43938 13.4014 9.30238 14.2114L10.2604 15.1834C10.5274 15.4534 10.9614 15.4584 11.2294 15.1944C11.3304 15.0754 13.5084 12.4304 13.5084 12.4304C13.9224 11.9284 14.5064 11.6184 15.1554 11.5544C15.8054 11.4974 16.4364 11.6864 16.9394 12.0994C16.9824 12.1344 17.0214 12.1684 19.2174 14.4234C19.5064 14.7194 19.5014 15.1944 19.2044 15.4834C18.9084 15.7744 18.4324 15.7654 18.1434 15.4694C18.1434 15.4694 16.0944 13.3664 15.9484 13.2244C15.7934 13.0974 15.5444 13.0234 15.2994 13.0474C15.0504 13.0724 14.8264 13.1914 14.6674 13.3844C12.3434 16.2034 12.3154 16.2304 12.2774 16.2674C11.4194 17.1094 10.0344 17.0954 9.19138 16.2354C9.19138 16.2354 8.26138 15.2914 8.24538 15.2724C8.01438 15.0584 7.60238 15.0724 7.35538 15.3334L5.82538 16.9464C5.67738 17.1024 5.47938 17.1804 5.28138 17.1804Z" fill="black"/>
<path fill-rule="evenodd" clip-rule="evenodd" d="M8.55757 8.12891C8.00457 8.12891 7.55457 8.57891 7.55457 9.13291C7.55457 9.68691 8.00457 10.1379 8.55857 10.1379C9.11257 10.1379 9.56357 9.68691 9.56357 9.13291C9.56357 8.57991 9.11257 8.12991 8.55757 8.12891ZM8.55857 11.6379C7.17757 11.6379 6.05457 10.5139 6.05457 9.13291C6.05457 7.75191 7.17757 6.62891 8.55857 6.62891C9.94057 6.62991 11.0636 7.75391 11.0636 9.13291C11.0636 10.5139 9.93957 11.6379 8.55857 11.6379Z" fill="black"/>
</svg>
