<svg width="24" height="24" viewBox="0 0 24 24" fill="none" xmlns="http://www.w3.org/2000/svg">
<mask id="mask0_420_1525" style="mask-type:alpha" maskUnits="userSpaceOnUse" x="3" y="2" width="18" height="20">
<path fill-rule="evenodd" clip-rule="evenodd" d="M3 2.01169H20.0515V21.8667H3V2.01169Z" fill="white"/>
</mask>
<g mask="url(#mask0_420_1525)">
<path fill-rule="evenodd" clip-rule="evenodd" d="M7.47851 3.51169C5.83551 3.51169 4.49951 4.84869 4.49951 6.49069V17.3397C4.50451 18.1507 4.82651 18.9147 5.40551 19.4877C5.98351 20.0587 6.78051 20.3867 7.56651 20.3667C7.57351 20.3667 7.68351 20.3657 7.68951 20.3657H15.5725C17.2145 20.3477 18.5545 18.9907 18.5515 17.3407V8.34169L13.9165 3.51169H7.47851ZM7.54251 21.8667C6.34251 21.8667 5.20751 21.4017 4.35051 20.5537C3.48651 19.6997 3.00651 18.5597 2.99951 17.3437V6.49069C2.99951 4.02169 5.00851 2.01169 7.47851 2.01169H14.2365C14.4405 2.01169 14.6355 2.09469 14.7775 2.24169L19.8425 7.52069C19.9765 7.65969 20.0515 7.84669 20.0515 8.03969V17.3397C20.0565 19.8087 18.0505 21.8397 15.5805 21.8657L7.57151 21.8667H7.54251Z" fill="black"/>
</g>
<path fill-rule="evenodd" clip-rule="evenodd" d="M19.2969 8.9844H16.5409C14.7109 8.9794 13.2239 7.4874 13.2239 5.6594V2.7504C13.2239 2.3364 13.5599 2.0004 13.9739 2.0004C14.3879 2.0004 14.7239 2.3364 14.7239 2.7504V5.6594C14.7239 6.6634 15.5399 7.4814 16.5429 7.4844H19.2969C19.7109 7.4844 20.0469 7.8204 20.0469 8.2344C20.0469 8.6484 19.7109 8.9844 19.2969 8.9844Z" fill="black"/>
<path fill-rule="evenodd" clip-rule="evenodd" d="M13.0752 15.3985C12.8832 15.3985 12.6912 15.3255 12.5452 15.1785L9.07925 11.7125C8.78625 11.4195 8.78625 10.9455 9.07925 10.6525C9.37225 10.3595 9.84625 10.3595 10.1392 10.6525L13.6052 14.1185C13.8982 14.4115 13.8982 14.8855 13.6052 15.1785C13.4592 15.3255 13.2672 15.3985 13.0752 15.3985Z" fill="black"/>
<path fill-rule="evenodd" clip-rule="evenodd" d="M9.61035 15.3985C9.41835 15.3985 9.22635 15.3255 9.08035 15.1785C8.78735 14.8855 8.78735 14.4115 9.08035 14.1185L12.5463 10.6525C12.8393 10.3595 13.3133 10.3595 13.6063 10.6525C13.8993 10.9455 13.8993 11.4195 13.6063 11.7125L10.1403 15.1785C9.99435 15.3255 9.80235 15.3985 9.61035 15.3985Z" fill="black"/>
</svg>
