<svg width="24" height="24" viewBox="0 0 24 24" fill="none" xmlns="http://www.w3.org/2000/svg">
<path fill-rule="evenodd" clip-rule="evenodd" d="M7.5719 3.51169C5.9149 3.51169 4.5399 4.85369 4.5009 6.50869V17.3397C4.4719 18.9867 5.7789 20.3387 7.4129 20.3667L7.5609 20.3657H15.5729C17.2149 20.3477 18.5539 18.9907 18.5519 17.3407V8.34169L13.9169 3.51169H7.5849H7.5719ZM7.3989 21.8667C4.9259 21.8237 2.9589 19.7867 3.0009 17.3267V6.49069C3.0579 4.00969 5.1059 2.01169 7.5689 2.01169H7.5879H14.2359C14.4399 2.01169 14.6349 2.09469 14.7769 2.24169L19.8429 7.52069C19.9769 7.65969 20.0519 7.84669 20.0519 8.03969V17.3397C20.0559 19.8087 18.0499 21.8397 15.5809 21.8657L7.3989 21.8667Z" fill="black"/>
<path fill-rule="evenodd" clip-rule="evenodd" d="M19.2966 8.9844H16.5426C14.7116 8.9794 13.2236 7.4874 13.2236 5.6594V2.7504C13.2236 2.3364 13.5596 2.0004 13.9736 2.0004C14.3876 2.0004 14.7236 2.3364 14.7236 2.7504V5.6594C14.7236 6.6634 15.5406 7.4814 16.5446 7.4844H19.2966C19.7106 7.4844 20.0466 7.8204 20.0466 8.2344C20.0466 8.6484 19.7106 8.9844 19.2966 8.9844Z" fill="black"/>
<path fill-rule="evenodd" clip-rule="evenodd" d="M13.7926 14.4971H8.89355C8.47955 14.4971 8.14355 14.1611 8.14355 13.7471C8.14355 13.3331 8.47955 12.9971 8.89355 12.9971H13.7926C14.2066 12.9971 14.5426 13.3331 14.5426 13.7471C14.5426 14.1611 14.2066 14.4971 13.7926 14.4971Z" fill="black"/>
</svg>
