<svg width="24" height="24" viewBox="0 0 24 24" fill="none" xmlns="http://www.w3.org/2000/svg">
<path fill-rule="evenodd" clip-rule="evenodd" d="M7.5729 3.51169C5.9149 3.51169 4.5399 4.85369 4.5009 6.50869V17.3397C4.4719 18.9867 5.7789 20.3387 7.4139 20.3667L7.5609 20.3657H15.5729C17.2149 20.3477 18.5539 18.9907 18.5519 17.3407V8.34169L13.9179 3.51169H7.5849H7.5729ZM7.3999 21.8667C4.9269 21.8237 2.9589 19.7867 3.0009 17.3267V6.49069C3.0579 4.00969 5.1069 2.01169 7.5699 2.01169H7.5879H14.2369C14.4409 2.01169 14.6359 2.09469 14.7779 2.24169L19.8439 7.52069C19.9769 7.65969 20.0519 7.84669 20.0519 8.03969V17.3397C20.0559 19.8087 18.0499 21.8397 15.5809 21.8657L7.3999 21.8667Z" fill="black"/>
<path fill-rule="evenodd" clip-rule="evenodd" d="M19.2975 8.9844H16.5435C14.7125 8.9794 13.2245 7.4874 13.2245 5.6594V2.7504C13.2245 2.3364 13.5605 2.0004 13.9745 2.0004C14.3885 2.0004 14.7245 2.3364 14.7245 2.7504V5.6594C14.7245 6.6634 15.5415 7.4814 16.5455 7.4844H19.2975C19.7115 7.4844 20.0475 7.8204 20.0475 8.2344C20.0475 8.6484 19.7115 8.9844 19.2975 8.9844Z" fill="black"/>
<path fill-rule="evenodd" clip-rule="evenodd" d="M13.7937 13.6641H8.89465C8.48065 13.6641 8.14465 13.3281 8.14465 12.9141C8.14465 12.5001 8.48065 12.1641 8.89465 12.1641H13.7937C14.2077 12.1641 14.5437 12.5001 14.5437 12.9141C14.5437 13.3281 14.2077 13.6641 13.7937 13.6641Z" fill="black"/>
<path fill-rule="evenodd" clip-rule="evenodd" d="M11.3444 16.1143C10.9304 16.1143 10.5944 15.7783 10.5944 15.3643V10.4643C10.5944 10.0503 10.9304 9.71429 11.3444 9.71429C11.7584 9.71429 12.0944 10.0503 12.0944 10.4643V15.3643C12.0944 15.7783 11.7584 16.1143 11.3444 16.1143Z" fill="black"/>
</svg>
