<svg width="24" height="24" viewBox="0 0 24 24" fill="none" xmlns="http://www.w3.org/2000/svg">
<path d="M18 14.7225C17.1086 14.7225 16.3069 15.0975 15.7376 15.696L9.08625 12.4395C9.10912 12.2865 9.12487 12.1316 9.12487 11.9723C9.12487 11.817 9.10987 11.6655 9.08812 11.5166L15.7297 8.29576C16.2994 8.89914 17.1049 9.27789 18 9.27789C19.7257 9.27789 21.1249 7.87876 21.1249 6.15301C21.1249 4.42689 19.7257 3.02814 18 3.02814C16.2742 3.02814 14.8751 4.42689 14.8751 6.15301C14.8751 6.30826 14.8901 6.45939 14.9119 6.60864L8.27025 9.82951C7.70062 9.22614 6.8955 8.84739 6 8.84739C4.27387 8.84739 2.87512 10.2465 2.87512 11.9723C2.87512 13.6984 4.27387 15.0971 6 15.0971C6.89137 15.0971 7.69312 14.7221 8.26237 14.1236L14.9137 17.3801C14.8909 17.5328 14.8751 17.688 14.8751 17.8474C14.8751 19.5735 16.2742 20.9723 18 20.9723C19.7257 20.9723 21.1249 19.5735 21.1249 17.8474C21.1249 16.1213 19.7257 14.7225 18 14.7225Z" fill="black"/>
</svg>
