<svg width="24" height="24" viewBox="0 0 24 24" fill="none" xmlns="http://www.w3.org/2000/svg">
<mask id="mask0_420_1581" style="mask-type:alpha" maskUnits="userSpaceOnUse" x="4" y="2" width="17" height="21">
<path fill-rule="evenodd" clip-rule="evenodd" d="M4.00024 2.00043H20.967V22.356H4.00024V2.00043Z" fill="white"/>
</mask>
<g mask="url(#mask0_420_1581)">
<path fill-rule="evenodd" clip-rule="evenodd" d="M12.4837 3.5C11.6357 3.5 6.28468 5.384 5.66768 5.899C5.48668 6.081 5.47968 6.399 5.51768 8.526C5.53668 9.552 5.56168 10.947 5.56168 12.879C5.56168 18.08 11.2837 20.389 12.4827 20.814C13.6807 20.387 19.4057 18.065 19.4057 12.879C19.4057 10.949 19.4307 9.555 19.4487 8.529C19.4877 6.4 19.4807 6.082 19.2877 5.889C18.6817 5.384 13.3317 3.5 12.4837 3.5ZM12.4837 22.356C12.4107 22.356 12.3377 22.346 12.2667 22.324C11.9317 22.223 4.06168 19.761 4.06168 12.879C4.06168 10.959 4.03668 9.572 4.01868 8.554C3.97268 6.014 3.96268 5.484 4.61768 4.828C5.40468 4.041 11.3507 2 12.4837 2C13.6167 2 19.5627 4.041 20.3487 4.828C21.0047 5.484 20.9947 6.014 20.9487 8.557C20.9307 9.575 20.9057 10.962 20.9057 12.879C20.9057 19.761 13.0357 22.223 12.7007 22.324C12.6297 22.346 12.5567 22.356 12.4837 22.356Z" fill="black"/>
</g>
<path fill-rule="evenodd" clip-rule="evenodd" d="M14.3626 14.5753C14.1706 14.5753 13.9786 14.5023 13.8326 14.3553L10.0746 10.5973C9.78161 10.3043 9.78161 9.83025 10.0746 9.53725C10.3676 9.24425 10.8416 9.24425 11.1346 9.53725L14.8926 13.2953C15.1856 13.5883 15.1856 14.0623 14.8926 14.3553C14.7466 14.5023 14.5546 14.5753 14.3626 14.5753Z" fill="black"/>
<path fill-rule="evenodd" clip-rule="evenodd" d="M10.6047 14.5753C10.4127 14.5753 10.2207 14.5023 10.0747 14.3553C9.78173 14.0623 9.78173 13.5883 10.0747 13.2953L13.8327 9.53725C14.1257 9.24425 14.5997 9.24425 14.8927 9.53725C15.1857 9.83025 15.1857 10.3043 14.8927 10.5973L11.1347 14.3553C10.9887 14.5023 10.7967 14.5753 10.6047 14.5753Z" fill="black"/>
</svg>
