<svg width="24" height="24" viewBox="0 0 24 24" fill="none" xmlns="http://www.w3.org/2000/svg">
<path d="M16.8396 5.79645C17.2193 5.79645 17.5331 6.0786 17.5828 6.44468L17.5896 6.54645V20.1642C17.5896 20.5784 17.2538 20.9142 16.8396 20.9142C16.4599 20.9142 16.1461 20.6321 16.0964 20.266L16.0896 20.1642V6.54645C16.0896 6.13223 16.4254 5.79645 16.8396 5.79645Z" fill="black"/>
<path d="M20.3857 15.539C20.6779 15.2454 21.1528 15.2443 21.4464 15.5366C21.7133 15.8022 21.7384 16.2188 21.5213 16.5129L21.4488 16.5972L17.3711 20.6939C17.1045 20.9616 16.6863 20.986 16.3922 20.7669L16.3079 20.6939L12.2302 16.5972C11.9379 16.3036 11.939 15.8288 12.2326 15.5366C12.4995 15.2709 12.9162 15.2477 13.2093 15.4662L13.2933 15.539L16.8391 19.101L20.3857 15.539Z" fill="black"/>
<path d="M6.91113 3.08289C7.29083 3.08289 7.60462 3.36504 7.65429 3.73112L7.66113 3.83289V17.4507C7.66113 17.8649 7.32535 18.2007 6.91113 18.2007C6.53144 18.2007 6.21764 17.9185 6.16798 17.5524L6.16113 17.4507V3.83289C6.16113 3.41867 6.49692 3.08289 6.91113 3.08289Z" fill="black"/>
<path d="M6.37972 3.30323C6.64624 3.03548 7.06449 3.01114 7.3586 3.23021L7.44283 3.30323L11.5206 7.3999C11.8128 7.69347 11.8117 8.16834 11.5182 8.46056C11.2513 8.72621 10.8346 8.74945 10.5414 8.53092L10.4575 8.45811L6.91105 4.895L3.36505 8.45811C3.0994 8.72499 2.68279 8.75016 2.38868 8.53298L2.30439 8.46056C2.03751 8.19491 2.01234 7.7783 2.22952 7.48419L2.30194 7.3999L6.37972 3.30323Z" fill="black"/>
</svg>
