<svg width="24" height="24" viewBox="0 0 24 24" fill="none" xmlns="http://www.w3.org/2000/svg">
<path fill-rule="evenodd" clip-rule="evenodd" d="M11.9951 17.4267C11.5811 17.4267 11.2451 17.0907 11.2451 16.6767V14.1397C11.2451 13.7257 11.5811 13.3897 11.9951 13.3897C12.4091 13.3897 12.7451 13.7257 12.7451 14.1397V16.6767C12.7451 17.0907 12.4091 17.4267 11.9951 17.4267Z" fill="black"/>
<mask id="mask0_420_1569" style="mask-type:alpha" maskUnits="userSpaceOnUse" x="2" y="4" width="20" height="11">
<path fill-rule="evenodd" clip-rule="evenodd" d="M2.00024 4.58002H21.99V14.891H2.00024V4.58002Z" fill="white"/>
</mask>
<g mask="url(#mask0_420_1569)">
<path fill-rule="evenodd" clip-rule="evenodd" d="M3.50024 11.393C5.87624 12.684 8.87224 13.391 11.9902 13.391C15.1142 13.391 18.1132 12.684 20.4902 11.393V8.39102C20.4902 7.11602 19.4592 6.08002 18.1902 6.08002H5.81024C4.53624 6.08002 3.50024 7.11202 3.50024 8.38102V11.393ZM11.9902 14.891C8.44524 14.891 5.02824 14.033 2.37124 12.477C2.14124 12.343 2.00024 12.097 2.00024 11.83V8.38102C2.00024 6.28502 3.70924 4.58002 5.81024 4.58002H18.1902C20.2862 4.58002 21.9902 6.28902 21.9902 8.39102V11.83C21.9902 12.097 21.8482 12.343 21.6192 12.477C18.9622 14.033 15.5422 14.891 11.9902 14.891Z" fill="black"/>
</g>
<mask id="mask1_420_1569" style="mask-type:alpha" maskUnits="userSpaceOnUse" x="7" y="2" width="10" height="5">
<path fill-rule="evenodd" clip-rule="evenodd" d="M7.74512 2.00021H16.2451V6.07611H7.74512V2.00021Z" fill="white"/>
</mask>
<g mask="url(#mask1_420_1569)">
<path fill-rule="evenodd" clip-rule="evenodd" d="M15.4951 6.07612C15.0811 6.07612 14.7451 5.74012 14.7451 5.32612V4.96012C14.7451 4.15512 14.0901 3.50012 13.2851 3.50012H10.7051C9.90012 3.50012 9.24512 4.15512 9.24512 4.96012V5.32612C9.24512 5.74012 8.90912 6.07612 8.49512 6.07612C8.08112 6.07612 7.74512 5.74012 7.74512 5.32612V4.96012C7.74512 3.32812 9.07312 2.00012 10.7051 2.00012H13.2851C14.9171 2.00012 16.2451 3.32812 16.2451 4.96012V5.32612C16.2451 5.74012 15.9091 6.07612 15.4951 6.07612Z" fill="black"/>
</g>
<path fill-rule="evenodd" clip-rule="evenodd" d="M17.7949 21.7402H6.19494C4.11994 21.7402 2.37294 20.1192 2.21594 18.0492L2.02594 15.5402C1.99494 15.1272 2.30494 14.7662 2.71794 14.7352C3.13294 14.7202 3.49094 15.0132 3.52294 15.4272L3.71194 17.9352C3.80994 19.2272 4.89994 20.2402 6.19494 20.2402H17.7949C19.0899 20.2402 20.1809 19.2272 20.2779 17.9352L20.4679 15.4272C20.4999 15.0132 20.8669 14.7192 21.2729 14.7352C21.6859 14.7662 21.9949 15.1272 21.9639 15.5402L21.7739 18.0492C21.6169 20.1192 19.8699 21.7402 17.7949 21.7402Z" fill="black"/>
</svg>
