<svg width="24" height="24" viewBox="0 0 24 24" fill="none" xmlns="http://www.w3.org/2000/svg">
<path d="M19.5527 2.99705C19.3007 3.00877 19.0634 3.08201 18.8525 3.16405H18.8496C18.6357 3.24901 17.6191 3.67674 16.0751 4.3242C14.5312 4.97459 12.5273 5.81834 10.538 6.65623C6.56538 8.32908 2.66011 9.97557 2.66011 9.97557L2.70698 9.95799C2.70698 9.95799 2.43745 10.0459 2.1562 10.2392C2.01265 10.333 1.85444 10.4619 1.71675 10.664C1.57905 10.8662 1.46772 11.1767 1.50874 11.4961C1.57612 12.0381 1.92769 12.3633 2.17964 12.542C2.43452 12.7236 2.67769 12.8086 2.67769 12.8086H2.68354L6.34565 14.042C6.50972 14.5693 7.46186 17.6982 7.69038 18.4189C7.82515 18.8496 7.95698 19.1191 8.12104 19.3242C8.20015 19.4297 8.2939 19.5176 8.40522 19.5879C8.44917 19.6142 8.49604 19.6347 8.54292 19.6523C8.55757 19.6611 8.57222 19.664 8.58979 19.667L8.55171 19.6582C8.56343 19.6611 8.57222 19.6699 8.58101 19.6728C8.6103 19.6816 8.63081 19.6846 8.6689 19.6904C9.24897 19.8662 9.71479 19.5058 9.71479 19.5058L9.74116 19.4853L11.9033 17.5166L15.5273 20.2969L15.6093 20.332C16.3652 20.6631 17.1298 20.4785 17.5341 20.1533C17.9414 19.8252 18.0996 19.4062 18.0996 19.4062L18.1259 19.3389L20.9267 4.99217C21.0058 4.63768 21.0263 4.30662 20.9384 3.98436C20.8505 3.66209 20.625 3.36033 20.3525 3.1992C20.0771 3.03514 19.8046 2.98533 19.5527 2.99705ZM19.4765 4.53514C19.4736 4.58201 19.4824 4.57616 19.4619 4.66697V4.67576L16.6875 18.873C16.6757 18.8935 16.6552 18.9375 16.5996 18.9814C16.541 19.0283 16.4941 19.0576 16.2509 18.9609L11.8183 15.5625L9.14058 18.0029L9.70308 14.4111C9.70308 14.4111 16.6464 7.93944 16.9453 7.66112C17.2441 7.3828 17.1445 7.3242 17.1445 7.3242C17.165 6.98436 16.6933 7.22459 16.6933 7.22459L7.56147 12.8818L7.55854 12.8672L3.18159 11.3935V11.3906C3.17866 11.3906 3.1728 11.3877 3.16987 11.3877C3.1728 11.3877 3.19331 11.3789 3.19331 11.3789L3.21675 11.3672L3.24019 11.3584C3.24019 11.3584 7.14839 9.7119 11.121 8.03905C13.1103 7.20116 15.1142 6.35741 16.6552 5.70701C18.1962 5.05955 19.3359 4.58494 19.4003 4.55858C19.4619 4.53514 19.4326 4.53514 19.4765 4.53514Z" fill="#495057"/>
</svg>
