<?xml version="1.0" encoding="UTF-8"?>
<!DOCTYPE svg PUBLIC "-//W3C//DTD SVG 1.1//EN" "http://www.w3.org/Graphics/SVG/1.1/DTD/svg11.dtd">
<!-- Creator: CorelDRAW 2019 (64-Bit) -->
<svg xmlns="http://www.w3.org/2000/svg" xml:space="preserve" width="20mm" height="20mm" version="1.1" style="shape-rendering:geometricPrecision; text-rendering:geometricPrecision; image-rendering:optimizeQuality; fill-rule:evenodd; clip-rule:evenodd"
viewBox="0 0 2000 2000"
 xmlns:xlink="http://www.w3.org/1999/xlink">
 <defs>
  <style type="text/css">
   <![CDATA[
    .str0 {stroke:#3BAA33;stroke-width:67.73;stroke-linejoin:round;stroke-miterlimit:2.61313}
    .fil0 {fill:none}
   ]]>
  </style>
 </defs>
 <g id="Layer_x0020_1">
  <metadata id="CorelCorpID_0Corel-Layer"/>
  <path class="fil0 str0" d="M771.98 915.91l0.06 -212.92c0,-88.65 -76.94,-165.6 -162.16,-164.95l-267.54 0.66m1325.11 499l0 369.2c0,247.27 -200.45,447.72 -447.72,447.72 -247.27,0 -447.72,-200.45 -447.72,-436.89l0 -332.9m255.03 0l0 332.63c0,111.01 89.99,201 201.01,201 111.01,0 201,-89.99 201,-201l0 -379.76m-1086.71 -751.27l274.25 -0.02c224.55,-0.01 409.16,183.79 410.45,411.05 0,0.78 0,1.57 0.02,-17.2l-0.05 244.15m349.25 -140.37c0,-9.25 0,-18.49 -8.03,-29.59 -8.07,-11.09 -24.18,-24.02 -32.24,-35.57 -8.05,-11.55 -8.05,-21.73 -8.06,-31.89l0 -148.32 450.42 0 0 153.19c-0.02,5.29 -0.02,15.47 -8.34,27.02 -8.31,11.55 -24.94,24.48 -33.26,35.57 -8.29,11.1 -8.29,20.34 -8.29,29.59l0 253.66 -44.24 0 -16.77 0 -238.4 0 -52.79 0 0 -253.66zm-1033.92 -579.77l-186.53 0 0 421.35 186.53 0 0 -86.92 0 -252.27 0 -82.16zm740.16 720.14l-55.49 0 -304.91 0 0 160.42 49.91 0 255.03 0 16.77 0 38.69 0 0 -4.73 0 -11.32 0 -144.37z"/>
 </g>
</svg>
