<?xml version="1.0" encoding="UTF-8"?>
<!DOCTYPE svg PUBLIC "-//W3C//DTD SVG 1.1//EN" "http://www.w3.org/Graphics/SVG/1.1/DTD/svg11.dtd">
<!-- Creator: CorelDRAW 2019 (64-Bit) -->
<svg xmlns="http://www.w3.org/2000/svg" xml:space="preserve" width="20mm" height="20mm" version="1.1" style="shape-rendering:geometricPrecision; text-rendering:geometricPrecision; image-rendering:optimizeQuality; fill-rule:evenodd; clip-rule:evenodd"
viewBox="0 0 2000 2000"
 xmlns:xlink="http://www.w3.org/1999/xlink">
 <defs>
  <style type="text/css">
   <![CDATA[
    .str0 {stroke:#3BAA33;stroke-width:67.73;stroke-miterlimit:2.61313}
    .str1 {stroke:#3BAA33;stroke-width:67.73;stroke-linejoin:round;stroke-miterlimit:2.61313}
    .str2 {stroke:#3BAA33;stroke-width:50.8;stroke-linejoin:round;stroke-miterlimit:2.61313}
    .str3 {stroke:#3BAA33;stroke-width:67.73;stroke-linecap:round;stroke-linejoin:round;stroke-miterlimit:2.61313}
    .fil1 {fill:none}
    .fil0 {fill:#3BAA33;fill-rule:nonzero}
   ]]>
  </style>
 </defs>
 <g id="Layer_x0020_1">
  <metadata id="CorelCorpID_0Corel-Layer"/>
  <g>
   <path class="fil0" d="M1217.01 1159.99c6.03,-17.7 25.28,-27.15 42.98,-21.12 17.7,6.03 27.15,25.28 21.12,42.98l-64.1 -21.86zm58.69 87.5l-66.86 10.88 0.01 0 -0.5 -3.22 -0.44 -3.15 -0.39 -3.15 -0.35 -3.22 -0.29 -3.22 -0.24 -3.15 -0.19 -3.15 -0.14 -3.15 -0.1 -3.2 -0.03 -3.15 0 -3.13 0.06 -3.14 0.09 -3.06 0.15 -3.19 0.2 -3.11 0.24 -3.12 0.3 -3.11 0.34 -3.02 0.37 -3.02 0.43 -3.1 0.49 -3.13 0.52 -3 0.56 -2.99 0.61 -2.97 0.66 -3.03 0.7 -2.95 0.73 -2.95 0.81 -3 0.82 -2.91 0.87 -2.91 0.92 -2.9 0.96 -2.88 64.1 21.86 -0.64 1.92 -0.6 1.92 -0.59 1.95 -0.56 1.97 -0.51 1.9 -0.49 1.99 -0.48 2.01 -0.42 1.95 -0.41 2.03 -0.38 2.03 -0.36 2.06 -0.31 1.93 -0.27 2 -0.27 2.1 -0.22 2.1 -0.2 2.03 -0.16 2.06 -0.14 2.07 -0.09 2.01 -0.07 2.14 -0.04 2.1 0 2.11 0.03 2.11 0.06 2.06 0.1 2.13 0.13 2.13 0.16 2.15 0.19 2.1 0.23 2.1 0.27 2.17 0.3 2.19 0.32 2.12 0.01 0zm105.46 150.12l-62.66 -25.7 26.07 46.3 -7.12 -1.3 -7.01 -1.65 -6.85 -2 -6.68 -2.31 -6.55 -2.65 -6.36 -2.95 -6.17 -3.25 -5.97 -3.53 -5.77 -3.8 -5.56 -4.04 -5.36 -4.29 -5.18 -4.54 -4.94 -4.75 -4.71 -4.91 -4.55 -5.16 -4.34 -5.34 -4.09 -5.47 -3.92 -5.66 -3.71 -5.81 -3.51 -5.95 -3.33 -6.11 -3.12 -6.24 -2.92 -6.34 -2.74 -6.46 -2.56 -6.59 -2.36 -6.7 -2.18 -6.78 -1.99 -6.87 -1.82 -6.96 -1.63 -7.07 -1.45 -7.14 -1.28 -7.22 66.86 -10.88 0.96 5.48 1.09 5.38 1.23 5.27 1.34 5.18 1.47 5.05 1.58 4.94 1.7 4.8 1.8 4.65 1.92 4.54 2.02 4.38 2.12 4.22 2.21 4.07 2.31 3.91 2.39 3.75 2.48 3.58 2.57 3.43 2.6 3.22 2.69 3.04 2.79 2.91 2.82 2.71 2.88 2.52 2.96 2.37 3.02 2.2 3.07 2.02 3.13 1.85 3.21 1.69 3.28 1.53 3.33 1.35 3.46 1.19 3.55 1.04 3.63 0.85 3.78 0.7 26.07 46.3zm-26.07 -46.3c18.47,2.9 31.09,20.24 28.19,38.71 -2.9,18.47 -20.24,31.09 -38.71,28.19l10.52 -66.9zm-181.06 293.6l46.76 -49 -46.24 -0.49 6.55 -6.11 6.37 -6.16 6.17 -6.21 6 -6.27 5.84 -6.33 5.67 -6.38 5.49 -6.42 5.36 -6.51 5.22 -6.55 5.07 -6.61 4.93 -6.67 4.81 -6.72 4.67 -6.77 4.55 -6.85 4.46 -6.91 4.33 -6.94 4.22 -7 4.13 -7.08 4.04 -7.14 3.94 -7.19 3.87 -7.25 3.77 -7.3 3.71 -7.37 3.65 -7.42 3.56 -7.47 3.51 -7.54 3.46 -7.59 3.4 -7.65 3.36 -7.68 3.31 -7.76 3.28 -7.81 3.25 -7.85 62.66 25.7 -3.39 8.21 -3.44 8.17 -3.49 8.18 -3.56 8.16 -3.62 8.13 -3.7 8.13 -3.77 8.08 -3.86 8.09 -3.95 8.06 -4.03 8.01 -4.15 8.02 -4.25 7.97 -4.36 7.95 -4.48 7.9 -4.59 7.88 -4.74 7.86 -4.87 7.82 -5 7.75 -5.15 7.73 -5.31 7.69 -5.45 7.64 -5.63 7.59 -5.79 7.55 -5.94 7.47 -6.12 7.43 -6.33 7.4 -6.51 7.32 -6.68 7.25 -6.88 7.19 -7.09 7.13 -7.27 7.04 -7.49 6.99 -46.24 -0.49zm46.24 0.49c-13.8,12.62 -35.23,11.67 -47.85,-2.13 -12.62,-13.8 -11.67,-35.23 2.13,-47.85l45.72 49.98zm-209.38 -35.23l-26.28 -62.42 0 0 7.78 -3.1 7.86 -2.75 7.87 -2.42 7.94 -2.09 7.99 -1.77 7.98 -1.43 7.98 -1.11 8.01 -0.8 7.99 -0.48 7.98 -0.17 7.96 0.13 7.93 0.43 7.87 0.72 7.79 1 7.78 1.28 7.75 1.58 7.64 1.84 7.58 2.12 7.46 2.37 7.39 2.62 7.34 2.9 7.18 3.13 7.1 3.38 6.98 3.63 6.86 3.85 6.74 4.09 6.6 4.32 6.46 4.54 6.33 4.76 6.2 5 6.01 5.19 5.85 5.4 -46.76 49 -4.21 -3.88 -4.31 -3.73 -4.4 -3.56 -4.53 -3.4 -4.64 -3.26 -4.72 -3.08 -4.78 -2.91 -4.9 -2.75 -4.94 -2.57 -5.02 -2.38 -5.1 -2.23 -5.1 -2.02 -5.21 -1.84 -5.24 -1.67 -5.26 -1.46 -5.3 -1.28 -5.31 -1.08 -5.34 -0.88 -5.41 -0.7 -5.37 -0.5 -5.37 -0.29 -5.38 -0.09 -5.4 0.13 -5.37 0.32 -5.37 0.54 -5.38 0.75 -5.34 0.95 -5.31 1.17 -5.32 1.41 -5.31 1.62 -5.26 1.85 -5.24 2.08 0 0zm-108.84 193.06l-19.54 -64.86 -23.86 36.42 -0.88 -8.91 -0.56 -8.9 -0.21 -8.89 0.11 -8.81 0.45 -8.79 0.78 -8.74 1.1 -8.62 1.42 -8.56 1.74 -8.49 2.06 -8.39 2.37 -8.28 2.7 -8.18 2.99 -8.03 3.3 -7.9 3.61 -7.77 3.92 -7.62 4.21 -7.43 4.51 -7.29 4.81 -7.08 5.09 -6.88 5.38 -6.68 5.67 -6.47 5.96 -6.26 6.22 -5.99 6.49 -5.75 6.78 -5.5 7.03 -5.21 7.31 -4.95 7.53 -4.63 7.78 -4.33 8.04 -4.02 8.25 -3.69 26.28 62.42 -5.57 2.49 -5.36 2.68 -5.2 2.91 -5.05 3.09 -4.83 3.27 -4.69 3.49 -4.5 3.64 -4.33 3.85 -4.18 4.01 -3.96 4.16 -3.81 4.35 -3.62 4.5 -3.45 4.66 -3.25 4.8 -3.07 4.93 -2.87 5.09 -2.68 5.2 -2.47 5.33 -2.28 5.46 -2.09 5.59 -1.86 5.66 -1.65 5.76 -1.44 5.87 -1.22 5.95 -1 6.04 -0.78 6.12 -0.56 6.16 -0.31 6.21 -0.09 6.29 0.15 6.31 0.4 6.36 0.64 6.41 -23.86 36.42zm23.86 -36.42c2.2,18.57 -11.07,35.42 -29.64,37.62 -18.57,2.2 -35.42,-11.07 -37.62,-29.64l67.26 -7.98zm-140.04 52.13l0 -67.74 0 0 3.04 0 3.1 -0.03 3.04 -0.04 3.03 -0.07 3.04 -0.07 2.93 -0.1 3.04 -0.13 2.98 -0.14 2.99 -0.17 3 -0.19 2.95 -0.22 2.96 -0.23 2.96 -0.27 3.02 -0.3 2.93 -0.31 2.94 -0.35 3.02 -0.39 2.97 -0.4 2.93 -0.43 3.01 -0.48 3.01 -0.51 2.99 -0.53 3 -0.57 3.04 -0.62 3.01 -0.63 3.02 -0.68 3.1 -0.74 3.09 -0.76 3.09 -0.8 3.13 -0.85 3.12 -0.88 3.16 -0.94 19.54 64.86 -3.88 1.14 -3.88 1.1 -3.83 1.03 -3.83 1 -3.81 0.94 -3.74 0.88 -3.8 0.86 -3.79 0.81 -3.72 0.74 -3.72 0.71 -3.71 0.67 -3.67 0.61 -3.65 0.58 -3.69 0.55 -3.65 0.5 -3.58 0.45 -3.62 0.43 -3.63 0.39 -3.52 0.34 -3.58 0.33 -3.56 0.29 -3.57 0.26 -3.5 0.21 -3.51 0.21 -3.5 0.16 -3.46 0.15 -3.55 0.12 -3.46 0.09 -3.45 0.07 -3.46 0.04 -3.4 0.03 -3.46 0.02 0 0zm-232.36 -85.91l62.54 26.02 -17.51 -43.95 5.07 2.21 5.14 2.13 5.24 2.09 5.22 1.99 5.33 1.93 5.42 1.88 5.43 1.8 5.45 1.71 5.59 1.66 5.61 1.6 5.64 1.51 5.72 1.45 5.74 1.38 5.79 1.3 5.86 1.24 5.9 1.17 5.95 1.1 5.96 1.03 6 0.95 6.07 0.88 6.1 0.82 6.14 0.74 6.16 0.67 6.18 0.6 6.24 0.53 6.26 0.46 6.3 0.39 6.31 0.32 6.34 0.24 6.37 0.18 6.38 0.11 6.42 0.03 0 67.74 -7.16 -0.05 -7.14 -0.11 -7.13 -0.2 -7.1 -0.28 -7.09 -0.36 -7.06 -0.43 -7.04 -0.52 -7.02 -0.59 -7.02 -0.68 -6.96 -0.77 -6.94 -0.84 -6.9 -0.92 -6.87 -1 -6.88 -1.09 -6.84 -1.17 -6.77 -1.26 -6.74 -1.33 -6.7 -1.42 -6.69 -1.5 -6.66 -1.6 -6.58 -1.67 -6.58 -1.77 -6.49 -1.84 -6.45 -1.92 -6.47 -2.03 -6.39 -2.12 -6.28 -2.18 -6.29 -2.27 -6.26 -2.39 -6.14 -2.45 -6.14 -2.55 -6.07 -2.65 -17.51 -43.95zm17.51 43.95c-17.08,-7.59 -24.77,-27.62 -17.18,-44.7 7.59,-17.08 27.62,-24.77 44.7,-17.18l-27.52 61.88zm-58.07 -197.09l41.38 -53.62 0.01 0.01 6.53 5.26 6.25 5.46 6.01 5.7 5.73 5.9 5.46 6.1 5.16 6.27 4.9 6.45 4.61 6.64 4.3 6.76 4.04 6.95 3.72 7.09 3.41 7.17 3.13 7.34 2.81 7.44 2.51 7.53 2.19 7.63 1.89 7.71 1.56 7.8 1.25 7.87 0.92 7.9 0.6 7.95 0.28 8.02 -0.06 8.02 -0.37 8.01 -0.72 8.07 -1.05 8.06 -1.38 8.04 -1.72 8 -2.06 7.98 -2.39 7.94 -2.73 7.88 -3.07 7.83 -62.54 -26.02 2.07 -5.27 1.83 -5.3 1.61 -5.3 1.36 -5.3 1.14 -5.32 0.92 -5.3 0.69 -5.28 0.46 -5.27 0.25 -5.29 0.04 -5.26 -0.18 -5.2 -0.4 -5.21 -0.6 -5.16 -0.81 -5.11 -1.02 -5.06 -1.23 -5.03 -1.43 -4.99 -1.63 -4.91 -1.83 -4.84 -2.03 -4.76 -2.25 -4.73 -2.42 -4.61 -2.62 -4.51 -2.84 -4.46 -3.01 -4.34 -3.22 -4.25 -3.42 -4.15 -3.6 -4.02 -3.81 -3.92 -3.99 -3.78 -4.21 -3.68 -4.39 -3.54 0.01 0.01zm-216.09 5.46l50.14 -45.54 -48.24 -1.93 6.75 -6.06 6.96 -5.71 7.17 -5.36 7.36 -5 7.51 -4.62 7.66 -4.27 7.79 -3.88 7.92 -3.53 8.07 -3.17 8.15 -2.79 8.23 -2.41 8.33 -2.05 8.4 -1.68 8.43 -1.3 8.48 -0.93 8.52 -0.54 8.48 -0.19 8.53 0.19 8.54 0.57 8.48 0.94 8.44 1.3 8.42 1.68 8.37 2.06 8.29 2.43 8.21 2.8 8.11 3.17 8.01 3.54 7.87 3.91 7.76 4.27 7.62 4.66 7.44 5 7.27 5.36 -41.38 53.62 -4.91 -3.62 -4.98 -3.36 -5.06 -3.08 -5.16 -2.85 -5.23 -2.59 -5.29 -2.34 -5.35 -2.09 -5.39 -1.84 -5.43 -1.59 -5.47 -1.34 -5.52 -1.1 -5.54 -0.86 -5.58 -0.62 -5.52 -0.37 -5.55 -0.11 -5.6 0.11 -5.52 0.36 -5.52 0.61 -5.51 0.84 -5.44 1.08 -5.39 1.33 -5.39 1.59 -5.31 1.81 -5.23 2.05 -5.18 2.31 -5.11 2.56 -5.04 2.79 -4.93 3.04 -4.82 3.28 -4.73 3.54 -4.62 3.79 -4.53 4.06 -48.24 -1.93zm48.24 1.93c-13.64,12.79 -35.08,12.11 -47.87,-1.53 -12.79,-13.64 -12.11,-35.08 1.53,-47.87l46.34 49.4zm-153.26 -307.62l10.78 66.86 27.82 -40.06 1.7 8.15 1.84 8.12 1.99 8.11 2.11 8.07 2.25 8.01 2.4 8 2.52 7.96 2.67 7.92 2.78 7.88 2.91 7.8 3.05 7.76 3.17 7.73 3.28 7.63 3.42 7.58 3.54 7.54 3.65 7.45 3.78 7.38 3.89 7.33 4 7.22 4.12 7.16 4.21 7.06 4.34 6.99 4.45 6.91 4.54 6.81 4.65 6.7 4.75 6.61 4.85 6.52 4.95 6.4 5.05 6.3 5.14 6.21 5.23 6.07 5.33 5.97 -50.14 45.54 -6.13 -6.87 -6.03 -7.01 -5.9 -7.11 -5.79 -7.22 -5.67 -7.36 -5.55 -7.44 -5.43 -7.55 -5.31 -7.68 -5.18 -7.75 -5.05 -7.85 -4.94 -7.95 -4.81 -8.04 -4.68 -8.14 -4.54 -8.22 -4.41 -8.29 -4.28 -8.38 -4.15 -8.47 -4 -8.52 -3.88 -8.6 -3.74 -8.69 -3.59 -8.73 -3.45 -8.8 -3.31 -8.88 -3.16 -8.92 -3.01 -8.98 -2.86 -9.02 -2.72 -9.08 -2.57 -9.15 -2.41 -9.17 -2.25 -9.21 -2.1 -9.26 -1.94 -9.29 27.82 -40.06zm-27.82 40.06c-3.66,-18.34 8.24,-36.18 26.58,-39.84 18.34,-3.66 36.18,8.24 39.84,26.58l-66.42 13.26zm132.67 -154.91l67.42 6.42 0 0 -0.96 8.31 -1.29 8.23 -1.62 8.12 -1.92 7.99 -2.25 7.86 -2.53 7.68 -2.83 7.56 -3.13 7.44 -3.42 7.24 -3.68 7.07 -3.97 6.91 -4.21 6.71 -4.49 6.53 -4.73 6.31 -4.98 6.13 -5.23 5.9 -5.42 5.66 -5.69 5.48 -5.89 5.19 -6.09 4.97 -6.32 4.73 -6.48 4.45 -6.72 4.21 -6.89 3.92 -7.03 3.64 -7.26 3.37 -7.4 3.06 -7.5 2.75 -7.7 2.46 -7.84 2.13 -7.94 1.8 -8.08 1.48 -10.78 -66.86 5.24 -0.96 5.16 -1.18 5.04 -1.37 4.94 -1.58 4.9 -1.79 4.76 -1.96 4.62 -2.15 4.57 -2.36 4.43 -2.52 4.3 -2.71 4.22 -2.89 4.06 -3.03 3.95 -3.23 3.83 -3.39 3.65 -3.5 3.56 -3.72 3.39 -3.82 3.22 -3.97 3.09 -4.13 2.93 -4.27 2.77 -4.39 2.59 -4.51 2.42 -4.65 2.24 -4.76 2.05 -4.86 1.87 -5 1.69 -5.14 1.49 -5.2 1.28 -5.29 1.08 -5.4 0.85 -5.51 0.66 -5.61 0 0zm-117.91 -178.83l64.94 19.26 -24.4 -42.52 8.65 2.33 8.45 2.72 8.26 3.08 8.05 3.43 7.85 3.78 7.63 4.13 7.4 4.44 7.15 4.76 6.89 5.05 6.64 5.35 6.4 5.63 6.11 5.9 5.84 6.16 5.54 6.4 5.25 6.63 4.97 6.88 4.65 7.07 4.35 7.29 4.02 7.47 3.72 7.65 3.37 7.85 3.05 8 2.69 8.14 2.35 8.27 2.01 8.45 1.62 8.53 1.28 8.64 0.89 8.76 0.51 8.84 0.12 8.91 -0.26 8.95 -0.66 9.02 -67.42 -6.42 0.44 -6.06 0.18 -6.03 -0.08 -5.95 -0.35 -5.86 -0.59 -5.8 -0.84 -5.72 -1.08 -5.65 -1.31 -5.53 -1.55 -5.47 -1.77 -5.34 -1.99 -5.24 -2.21 -5.11 -2.42 -5.01 -2.62 -4.87 -2.83 -4.73 -3.03 -4.61 -3.21 -4.44 -3.41 -4.29 -3.58 -4.14 -3.76 -3.96 -3.93 -3.8 -4.08 -3.61 -4.28 -3.43 -4.43 -3.25 -4.57 -3.04 -4.74 -2.86 -4.87 -2.63 -5.03 -2.42 -5.17 -2.21 -5.34 -1.98 -5.47 -1.76 -5.59 -1.51 -24.4 -42.52zm24.4 42.52c-18.16,-4.45 -29.27,-22.8 -24.82,-40.96 4.45,-18.16 22.8,-29.27 40.96,-24.82l-16.14 65.78zm227.53 -334.17l-54.22 40.6 47.89 6.44 -7.88 6.25 -7.76 6.41 -7.65 6.58 -7.52 6.72 -7.39 6.89 -7.28 7.04 -7.15 7.2 -7.02 7.32 -6.86 7.47 -6.75 7.62 -6.6 7.73 -6.45 7.88 -6.31 7.99 -6.15 8.11 -6 8.24 -5.86 8.36 -5.68 8.46 -5.53 8.56 -5.35 8.68 -5.2 8.77 -5.03 8.87 -4.84 8.94 -4.67 9.05 -4.51 9.14 -4.32 9.21 -4.12 9.28 -3.95 9.36 -3.76 9.42 -3.56 9.5 -3.37 9.53 -3.16 9.62 -2.98 9.67 -64.94 -19.26 3.38 -10.97 3.6 -10.92 3.83 -10.85 4.04 -10.76 4.26 -10.68 4.45 -10.58 4.68 -10.5 4.88 -10.41 5.07 -10.3 5.27 -10.21 5.48 -10.12 5.67 -9.99 5.84 -9.87 6.05 -9.78 6.23 -9.66 6.4 -9.52 6.58 -9.4 6.76 -9.28 6.93 -9.15 7.11 -9.01 7.27 -8.86 7.44 -8.73 7.59 -8.56 7.76 -8.43 7.92 -8.28 8.05 -8.1 8.22 -7.96 8.37 -7.79 8.52 -7.62 8.65 -7.44 8.8 -7.27 8.94 -7.09 47.89 6.44zm-47.89 -6.44c14.76,-11.47 36.05,-8.8 47.52,5.96 11.47,14.76 8.8,36.05 -5.96,47.52l-41.56 -53.48zm199.4 48.71l24.66 63.08 0.01 0 -7.88 2.89 -7.91 2.55 -7.96 2.22 -7.98 1.88 -8.03 1.55 -8.06 1.2 -8.01 0.88 -8.02 0.55 -8.04 0.23 -8.01 -0.1 -7.92 -0.43 -7.92 -0.73 -7.85 -1.07 -7.78 -1.36 -7.75 -1.69 -7.64 -1.99 -7.55 -2.3 -7.43 -2.6 -7.36 -2.89 -7.23 -3.21 -7.07 -3.48 -6.98 -3.78 -6.79 -4.07 -6.68 -4.35 -6.5 -4.66 -6.29 -4.88 -6.16 -5.2 -5.95 -5.47 -5.72 -5.71 -5.54 -5.98 -5.31 -6.26 -5.08 -6.49 54.22 -40.6 3.36 4.31 3.49 4.1 3.64 3.94 3.78 3.77 3.89 3.57 4 3.38 4.17 3.24 4.22 3.02 4.34 2.83 4.47 2.67 4.52 2.46 4.65 2.28 4.71 2.09 4.78 1.89 4.87 1.7 4.95 1.5 4.98 1.31 5.03 1.09 5.12 0.9 5.15 0.69 5.18 0.49 5.24 0.27 5.23 0.08 5.26 -0.15 5.3 -0.37 5.33 -0.58 5.3 -0.8 5.31 -1.03 5.32 -1.24 5.32 -1.48 5.31 -1.71 5.28 -1.95 0.01 0zm105.72 -185.9l14.84 66.08 25.64 -40.37 1.73 8.76 1.33 8.78 0.92 8.8 0.49 8.74 0.11 8.7 -0.29 8.67 -0.68 8.59 -1.05 8.51 -1.44 8.45 -1.81 8.35 -2.18 8.24 -2.54 8.13 -2.89 7.96 -3.22 7.83 -3.58 7.69 -3.89 7.51 -4.24 7.36 -4.55 7.16 -4.86 6.96 -5.17 6.77 -5.47 6.54 -5.77 6.33 -6.06 6.09 -6.34 5.83 -6.62 5.58 -6.89 5.31 -7.16 5.04 -7.4 4.73 -7.65 4.45 -7.9 4.13 -8.12 3.8 -8.35 3.48 -24.66 -63.08 5.61 -2.34 5.46 -2.56 5.26 -2.75 5.09 -2.95 4.92 -3.15 4.72 -3.32 4.55 -3.51 4.36 -3.68 4.18 -3.85 3.98 -3.99 3.77 -4.13 3.59 -4.3 3.39 -4.43 3.18 -4.56 2.97 -4.66 2.74 -4.78 2.55 -4.91 2.32 -4.99 2.1 -5.09 1.87 -5.18 1.64 -5.23 1.4 -5.32 1.17 -5.37 0.92 -5.43 0.69 -5.51 0.44 -5.55 0.19 -5.59 -0.07 -5.62 -0.33 -5.68 -0.58 -5.64 -0.87 -5.72 -1.13 -5.74 25.64 -40.37zm-25.64 40.37c-4.04,-18.25 7.48,-36.35 25.73,-40.39 18.25,-4.04 36.35,7.48 40.39,25.73l-66.12 14.66zm123.57 -49.64l0 67.74 0 0 -2.87 0 -2.88 0.02 -2.86 0.04 -2.85 0.05 -2.79 0.06 -2.84 0.09 -2.88 0.09 -2.82 0.11 -2.75 0.12 -2.74 0.14 -2.77 0.16 -2.76 0.16 -2.73 0.19 -2.67 0.19 -2.72 0.23 -2.68 0.22 -2.53 0.24 -2.65 0.27 -2.62 0.28 -2.59 0.3 -2.51 0.29 -2.47 0.33 -2.51 0.34 -2.41 0.35 -2.39 0.36 -2.41 0.39 -2.32 0.39 -2.28 0.42 -2.25 0.41 -2.2 0.45 -2.24 0.46 -2.1 0.46 -14.84 -66.08 2.84 -0.62 2.78 -0.58 2.86 -0.57 2.89 -0.55 2.9 -0.52 2.94 -0.49 2.89 -0.47 2.97 -0.46 2.99 -0.43 2.95 -0.4 3.03 -0.39 3.05 -0.37 3.01 -0.34 3.02 -0.32 3.03 -0.31 3.17 -0.3 3.08 -0.26 3.08 -0.25 3.15 -0.23 3.11 -0.21 3.12 -0.2 3.15 -0.18 3.2 -0.16 3.21 -0.14 3.16 -0.11 3.12 -0.11 3.18 -0.09 3.25 -0.08 3.19 -0.05 3.2 -0.04 3.2 -0.02 3.21 -0.02 0 0zm229.21 78.7l-62.02 -27.2 20.67 45.85 -5.29 -1.68 -5.36 -1.63 -5.42 -1.6 -5.42 -1.55 -5.48 -1.51 -5.56 -1.48 -5.56 -1.42 -5.61 -1.38 -5.67 -1.34 -5.69 -1.29 -5.73 -1.24 -5.79 -1.2 -5.78 -1.15 -5.82 -1.08 -5.9 -1.05 -5.9 -1 -5.93 -0.94 -5.94 -0.88 -6.01 -0.82 -6.02 -0.78 -6.04 -0.71 -6.08 -0.67 -6.08 -0.59 -6.14 -0.54 -6.13 -0.49 -6.16 -0.41 -6.18 -0.36 -6.19 -0.29 -6.23 -0.23 -6.23 -0.17 -6.25 -0.1 -6.27 -0.03 0 -67.74 6.99 0.05 6.97 0.1 6.95 0.19 6.91 0.25 6.91 0.33 6.88 0.4 6.84 0.47 6.83 0.53 6.78 0.6 6.78 0.67 6.74 0.73 6.7 0.79 6.68 0.86 6.63 0.92 6.62 0.98 6.59 1.04 6.54 1.1 6.48 1.15 6.48 1.22 6.44 1.27 6.37 1.32 6.35 1.38 6.31 1.43 6.25 1.48 6.23 1.52 6.2 1.6 6.1 1.62 6.1 1.67 6.06 1.73 5.98 1.78 5.94 1.81 5.91 1.86 20.67 45.85zm-20.67 -45.85c17.81,5.71 27.62,24.78 21.91,42.59 -5.71,17.81 -24.78,27.62 -42.59,21.91l20.68 -64.5zm62.15 192.65l-41.7 53.36 0 0 -6.49 -5.29 -6.23 -5.5 -5.96 -5.72 -5.69 -5.91 -5.41 -6.11 -5.12 -6.26 -4.85 -6.42 -4.56 -6.6 -4.29 -6.75 -3.97 -6.87 -3.69 -6.99 -3.39 -7.11 -3.11 -7.23 -2.79 -7.31 -2.5 -7.39 -2.2 -7.49 -1.89 -7.56 -1.58 -7.62 -1.27 -7.67 -0.95 -7.69 -0.63 -7.72 -0.32 -7.77 0.01 -7.76 0.33 -7.76 0.67 -7.76 0.99 -7.74 1.33 -7.7 1.66 -7.67 2.02 -7.62 2.35 -7.54 2.69 -7.46 3.04 -7.37 62.02 27.2 -1.88 4.57 -1.67 4.64 -1.47 4.7 -1.24 4.72 -1.04 4.77 -0.83 4.84 -0.63 4.86 -0.41 4.88 -0.21 4.94 -0.01 4.92 0.2 4.95 0.41 4.96 0.61 4.95 0.81 4.93 1.02 4.92 1.23 4.9 1.42 4.85 1.64 4.85 1.83 4.79 2.03 4.73 2.23 4.67 2.43 4.61 2.63 4.53 2.81 4.45 3.02 4.34 3.21 4.28 3.42 4.18 3.59 4.05 3.79 3.93 3.98 3.82 4.19 3.7 4.37 3.57 0 0zm50.21 24.7l-16.7 65.64 -2.49 -0.65 -2.44 -0.67 -2.55 -0.73 -2.5 -0.77 -2.35 -0.74 -2.52 -0.82 -2.51 -0.87 -2.33 -0.84 -2.47 -0.92 -2.45 -0.95 -2.41 -0.97 -2.45 -1.03 -2.33 -1.01 -2.38 -1.06 -2.45 -1.14 -2.38 -1.15 -2.31 -1.15 -2.32 -1.18 -2.38 -1.26 -2.36 -1.29 -2.28 -1.29 -2.31 -1.33 -2.3 -1.38 -2.27 -1.4 -2.22 -1.41 -2.25 -1.46 -2.24 -1.51 -2.24 -1.54 -2.24 -1.59 -2.15 -1.57 -2.17 -1.62 -2.16 -1.68 41.7 -53.36 1.44 1.1 1.47 1.1 1.51 1.11 1.44 1.03 1.48 1.02 1.48 0.99 1.51 0.98 1.56 0.99 1.53 0.94 1.5 0.9 1.53 0.89 1.58 0.89 1.52 0.83 1.52 0.8 1.6 0.82 1.63 0.81 1.56 0.75 1.51 0.7 1.62 0.72 1.67 0.73 1.55 0.65 1.63 0.65 1.59 0.63 1.59 0.58 1.73 0.62 1.57 0.55 1.58 0.52 1.77 0.56 1.6 0.49 1.59 0.45 1.7 0.47 1.65 0.43zm0 0c18.12,4.61 29.08,23.05 24.47,41.17 -4.61,18.12 -23.05,29.08 -41.17,24.47l16.7 -65.64z"/>
  </g>
  <circle class="fil1 str0" cx="791.72" cy="1183.26" r="271.2"/>
  <rect class="fil1 str1" x="1005.08" y="230.82" width="722.65" height="287.74"/>
  <path class="fil1 str2" d="M1078.96 518.56l78.25 201.67 7.8 94.26 113.95 77.57m376 -373.5l-76.07 201.67 -9.92 94.26 -123.95 77.57m133.87 -171.83l-426.64 0"/>
  <rect class="fil1 str2" x="1279.58" y="892.05" width="165.44" height="201.67"/>
  <line class="fil1 str3" x1="1362.3" y1="1113.73" x2="1362.3" y2= "1241.29" />
 </g>
</svg>
