<?xml version="1.0" encoding="UTF-8"?>
<!DOCTYPE svg PUBLIC "-//W3C//DTD SVG 1.1//EN" "http://www.w3.org/Graphics/SVG/1.1/DTD/svg11.dtd">
<!-- Creator: CorelDRAW 2019 (64-Bit) -->
<svg xmlns="http://www.w3.org/2000/svg" xml:space="preserve" width="20mm" height="20mm" version="1.1" style="shape-rendering:geometricPrecision; text-rendering:geometricPrecision; image-rendering:optimizeQuality; fill-rule:evenodd; clip-rule:evenodd"
viewBox="0 0 2000 2000"
 xmlns:xlink="http://www.w3.org/1999/xlink">
 <defs>
  <style type="text/css">
   <![CDATA[
    .str0 {stroke:#3BAA33;stroke-width:67.73;stroke-linecap:round;stroke-miterlimit:2.61313}
    .str1 {stroke:#3BAA33;stroke-width:17.64;stroke-linecap:round;stroke-miterlimit:2.61313}
    .fil0 {fill:none}
    .fil1 {fill:#3BAA33}
   ]]>
  </style>
 </defs>
 <g id="Layer_x0020_1">
  <metadata id="CorelCorpID_0Corel-Layer"/>
  <g id="_1867842582576">
   <path class="fil0 str0" d="M681.34 1328.46l0 449.92m933.07 -1071.89l219.49 152.31 0 450.63 -1152.56 468.95 -510.13 -351.74 0 -449.92 593.83 -235.41m-593.83 235.41l510.13 351.74 1152.56 -469.66"/>
   <path class="fil0 str0" d="M632.23 916.1c-12.45,18.26 -27.41,37.55 -22.24,61.27 4.04,18.54 23.4,31.87 41.95,31.17 9.48,-0.36 20.38,-2.83 29.72,-5.45l893.11 -269.34c31,-11.96 43.56,-26.61 51.03,-51.61 9.71,-32.47 1.56,-56.78 -25.42,-76.8 -18,-10.54 -36,-21.08 -53.99,-31.63 -36,-21.09 -72,-42.17 -107.99,-63.26 -93.36,-54.72 -186.78,-109.39 -280.02,-164.31 -14,-8.56 -21.09,-14.36 -37.95,-18.44 -20.43,-4.39 -34.38,-0.75 -49.87,13.3 -2.07,1.89 -4.43,4.17 -6.33,6.51l-432 568.59z"/>
   <path class="fil1 str1" d="M886.46 777.38c-2.13,2.61 -4.27,5.22 -5.4,8.37 -1.14,3.15 -1.26,6.84 -0.2,9.91 1.07,3.07 3.34,5.53 5.56,6.86 2.22,1.34 4.41,1.55 6.68,1.4 2.28,-0.16 4.65,-0.68 7.54,-2.02 2.89,-1.33 6.31,-3.48 9.73,-5.63l489.18 -308.59c0,-33.19 0,-66.37 6.65,-85.96 6.65,-19.58 19.96,-25.55 33.27,-31.53l286 -78.54c6.8,-2.85 13.6,-5.7 20.1,-10.58 6.51,-4.87 12.72,-11.77 15.93,-20.41 3.22,-8.64 3.43,-19.03 3.37,-28.56 -0.06,-9.54 -0.41,-18.22 -2.94,-28.89 -2.53,-10.67 -7.24,-23.34 -13.68,-34.81 -6.43,-11.48 -14.61,-21.76 -26.63,-28.59 -12.02,-6.83 -27.9,-10.21 -43.86,-7.52 -15.95,2.69 -31.99,11.44 -48.02,20.19l-265.41 173.46c-10.67,7.19 -21.35,14.38 -23.91,25.74 -2.57,11.36 2.98,26.89 -2.68,40.36 -5.66,13.48 -22.53,24.9 -39.4,36.33l-411.88 349.01z"/>
  </g>
 </g>
</svg>
