<?xml version="1.0" encoding="UTF-8"?>
<!DOCTYPE svg PUBLIC "-//W3C//DTD SVG 1.1//EN" "http://www.w3.org/Graphics/SVG/1.1/DTD/svg11.dtd">
<!-- Creator: CorelDRAW 2019 (64-Bit) -->
<svg xmlns="http://www.w3.org/2000/svg" xml:space="preserve" width="20mm" height="20mm" version="1.1" style="shape-rendering:geometricPrecision; text-rendering:geometricPrecision; image-rendering:optimizeQuality; fill-rule:evenodd; clip-rule:evenodd"
viewBox="0 0 2000 2000"
 xmlns:xlink="http://www.w3.org/1999/xlink">
 <defs>
  <style type="text/css">
   <![CDATA[
    .str0 {stroke:#3BAA33;stroke-width:50.8;stroke-linecap:round;stroke-linejoin:round;stroke-miterlimit:2.61313}
    .fil0 {fill:none}
   ]]>
  </style>
 </defs>
 <g id="Layer_x0020_1">
  <metadata id="CorelCorpID_0Corel-Layer"/>
  <path class="fil0 str0" d="M341.92 1429.39c6.65,-66.77 11.74,-133.48 18.61,-200.33l0.93 -9.04 1.42 -14.23c17.97,-179.14 22.87,-330.46 112.16,-493.44 16.52,-29.67 35.1,-55.09 54.82,-82.53 5.27,-7.09 10.57,-14.13 15.92,-21.15 38.58,-51.14 43.77,-66.98 48.2,-130.56 4.59,-66.07 0.59,-125.54 -0.47,-190.96l65.66 0 0 -159.82 128.56 0 0 159.82 65.05 0c0.02,59.58 -0.11,119.37 0.05,178.91 2.02,63.79 7.36,95.57 52.05,142.6 93.5,101.78 143.41,188.67 185.39,320.17 8.49,27.51 14.6,59.68 20.48,88.11 1.02,4.98 1.64,9.26 2.16,14.3m-357.09 754.22l240.9 0m-391.14 -327.59c12.9,35.74 33.58,70.34 62.03,103.79m120.89 -137.34c-23.38,5.33 -55.38,23.19 -96.02,53.6m-308.53 261.47c47.17,-13.71 87.39,-33.72 120.66,-60.03m-195.27 -109.43c39.49,14.72 64.37,36.83 74.61,66.32m176.63 73.42c-48.39,66.5 -106.44,112.07 -193.06,105.35 -62.19,-11.58 -104.46,-39.96 -145.28,-87.73 -27.4,-32.08 -26.87,-50.96 -70.09,-69.19 -17.31,-6.76 -33.51,-9 -51.79,-10.91 -9.38,-0.98 -3.79,-4.57 1.17,-10.57 13.37,-16.95 23.29,-29.11 38.45,-44.64 19.52,-19.17 37.39,-33.71 60.51,-48.45l4.02 -2.49c42.13,-25.63 83.95,-36.78 132.95,-39.79 84.87,-2.64 150.24,45.66 187.95,119.39l2.07 4.15c12.2,28.02 15.8,48.07 23.34,76.88m-337.39 -79.52c211.76,-10.79 387.07,75.71 525.94,259.49m16.45 -559.47c-79.45,155.91 -109.01,320.51 -91.16,473.45m-4 -126.76c194.21,0 302.7,-146.17 253.41,-329.8 -16.72,-62.28 -47.51,-81.89 -34.75,-155.53 3.68,-21.25 11.67,-41.42 19.88,-61.26 -254.54,17.99 -461,226.2 -298.36,472.54 16.45,24.91 33.08,44.24 54.43,65m662.37 -263.62c1.42,67.2 56.83,121.73 124.36,121.73l206.49 0c70.38,-1.6 127.89,-57.42 123.27,-129.21 -2.66,-41.4 -2.8,-75.93 -27.58,-111.64 -29.55,-41.6 -82.65,-48.73 -129.89,-51.64l-3.06 -0.2 -304.06 0c-89.46,0 -162.66,73.2 -162.66,162.66l0 102.53c0,89.46 73.2,162.66 162.66,162.66l8.75 -0.01c98.17,-0.11 196.34,-0.21 294.51,-0.33 23.64,-0.02 52.18,0.75 80.24,-0.84 0.01,0 0.01,0 0.02,0 28.46,-1.61 56.44,-5.64 78.35,-15.35 27.68,-13.32 54.94,-31.29 75.74,-54.13 10.13,-11.31 18.57,-22.42 26.36,-35.47 16.79,-28.69 31.04,-68.93 31.76,-102.32 0.95,-45.15 0.36,-89.83 0.09,-134.96 0,-131.56 -107.64,-239.2 -239.2,-239.2l-412.13 0c-131.57,0 -239.21,107.64 -239.21,239.2l0 268.76c0,131.55 107.64,239.2 239.21,239.2l546.82 0 35.57 0c21.05,0 38.28,-17.22 38.28,-38.27l0 -89.2c0,-21.05 -17.23,-38.27 -38.28,-38.27l-35.57 0 -107.79 0.01 -0.02 0m-1249.11 -255.71l54.44 -443.04 482.27 0 34.18 149.37m-224.72 -815.37l-128.56 0m0 -79.91l39.92 0m153.68 221.23l-256.72 -3.09m258.42 72.48l-261.97 0"/>
 </g>
</svg>
